<?xml version="1.0" encoding="UTF-8"?>
<svg width="301px" height="78px" viewBox="0 0 301 78" version="1.1" xmlns="http://www.w3.org/2000/svg" xmlns:xlink="http://www.w3.org/1999/xlink">
    <!-- Generator: Sketch 51.2 (57519) - http://www.bohemiancoding.com/sketch -->
    <title>Gadsden Logo Footer</title>
    <desc>Created with Sketch.</desc>
    <defs></defs>
    <g id="Gadsden-Logo-Footer" stroke="none" stroke-width="1" fill="none" fill-rule="evenodd">
        <g id="Group-2" transform="translate(11.250000, 12.500000)" fill="#C9B975" fill-rule="nonzero">
            <path d="M30.8797481,0.562673687 L30.8797481,10.8126737 L30.2547481,10.8126737 C28.1297481,7.18767369 24.7547481,1.43767369 17.2547481,1.43767369 C7.8797481,1.43767369 7.5047481,10.1876737 7.5047481,14.5626737 C7.5047481,20.4376737 8.2547481,25.6876737 17.1297481,25.6876737 C19.5047481,25.6876737 23.8797481,24.9376737 24.3797481,22.8126737 L24.3797481,16.8126737 L22.5047481,14.8126737 L18.6297481,14.8126737 L18.6297481,13.9376737 L36.8797481,13.9376737 L36.8797481,14.8126737 L33.5047481,14.8126737 L31.1297481,16.8126737 L31.1297481,22.5626737 C31.1297481,23.0626737 31.2547481,23.5626737 31.5047481,24.1876737 L31.1297481,24.5626737 C30.8797481,24.3126737 30.3797481,24.1876737 29.6297481,24.1876737 C26.7547481,24.1876737 22.1297481,26.5626737 16.1297481,26.5626737 C5.6297481,26.5626737 0.379748101,20.0626737 0.379748101,14.1876737 C0.379748101,5.18767369 8.8797481,0.562673687 17.0047481,0.562673687 C21.2547481,0.562673687 24.8797481,2.43767369 27.1297481,2.43767369 C29.0047481,2.43767369 29.8797481,1.31267369 30.3797481,0.562673687 L30.8797481,0.562673687 Z" id="Shape"></path>
            <path d="M62.0047481,23.4376737 L59.8797481,18.3126737 L48.0047481,18.3126737 L46.6297481,20.9376737 L48.6297481,25.0626737 L50.6297481,25.0626737 L50.6297481,25.9376737 L40.1297481,25.9376737 L40.1297481,25.0626737 C41.8797481,24.5626737 43.6297481,23.5626737 44.7547481,21.5626737 L56.6297481,0.562673687 L59.2547481,0.562673687 L68.6297481,22.4376737 C69.7547481,24.9376737 72.7547481,24.9376737 73.8797481,24.9376737 L73.8797481,25.8126737 L57.0047481,25.8126737 L57.0047481,24.9376737 L60.7547481,24.9376737 L62.0047481,23.4376737 Z M59.3797481,17.0626737 L55.1297481,7.06267369 C55.1297481,7.06267369 55.0047481,6.93767369 54.7547481,6.93767369 C54.6297481,6.93767369 54.5047481,6.93767369 54.3797481,7.18767369 L48.7547481,17.0626737 L59.3797481,17.0626737 Z" id="Shape"></path>
            <path d="M83.3797481,4.18767369 L81.3797481,2.06267369 L77.7547481,2.06267369 L77.7547481,1.18767369 L95.6297481,1.18767369 C104.254748,1.18767369 110.754748,4.56267369 110.754748,13.3126737 C110.754748,20.6876737 105.254748,25.8126737 97.2547481,25.8126737 L77.7547481,25.8126737 L77.7547481,24.9376737 L81.3797481,24.9376737 L83.2547481,22.5626737 L83.3797481,4.18767369 Z M90.2547481,22.8126737 L92.1297481,25.0626737 L96.7547481,25.0626737 C103.129748,25.0626737 103.504748,18.5626737 103.504748,13.5626737 C103.504748,8.43767369 102.754748,2.06267369 96.2547481,2.06267369 L92.1297481,2.06267369 L90.2547481,4.18767369 C90.1297481,4.18767369 90.1297481,22.8126737 90.2547481,22.8126737 Z" id="Shape"></path>
            <path d="M121.629748,17.3126737 L122.379748,17.3126737 C124.254748,20.9376737 126.879748,25.5626737 135.379748,25.5626737 C140.004748,25.5626737 143.754748,24.0626737 143.754748,21.0626737 C143.754748,17.6876737 137.004748,17.3126737 133.129748,16.9376737 C126.254748,16.1876737 120.754748,14.5626737 120.754748,8.43767369 C120.754748,4.68767369 123.629748,0.562673687 132.004748,0.562673687 C137.254748,0.562673687 140.879748,2.31267369 142.379748,2.93767369 L145.129748,0.562673687 L145.879748,0.562673687 L145.879748,8.43767369 L145.129748,8.43767369 C143.254748,5.31267369 140.129748,1.43767369 132.129748,1.43767369 C129.004748,1.43767369 124.754748,2.18767369 124.754748,5.56267369 C124.754748,8.68767369 128.879748,9.31267369 135.504748,9.93767369 C140.754748,10.4376737 147.379748,11.1876737 147.379748,18.4376737 C147.379748,24.5626737 141.254748,26.5626737 135.004748,26.5626737 C129.129748,26.5626737 126.879748,24.9376737 125.629748,24.0626737 L122.504748,26.5626737 L121.629748,26.5626737 L121.629748,17.3126737 Z" id="Shape"></path>
            <path d="M162.379748,4.18767369 L160.379748,2.06267369 L156.754748,2.06267369 L156.754748,1.18767369 L174.629748,1.18767369 C183.254748,1.18767369 189.754748,4.56267369 189.754748,13.3126737 C189.754748,20.6876737 184.254748,25.8126737 176.254748,25.8126737 L156.754748,25.8126737 L156.754748,24.9376737 L160.379748,24.9376737 L162.254748,22.5626737 L162.254748,4.18767369 L162.379748,4.18767369 Z M169.379748,22.8126737 L171.254748,25.0626737 L175.879748,25.0626737 C182.254748,25.0626737 182.629748,18.5626737 182.629748,13.5626737 C182.629748,8.43767369 181.879748,2.06267369 175.379748,2.06267369 L171.254748,2.06267369 L169.379748,4.18767369 L169.379748,22.8126737 Z" id="Shape"></path>
            <polygon id="Shape" points="203.879748 4.31267369 201.379748 2.06267369 197.879748 2.06267369 197.879748 1.18767369 227.754748 1.18767369 228.129748 10.4376737 227.254748 10.4376737 221.004748 1.93767369 212.504748 1.93767369 210.379748 3.93767369 210.379748 11.9376737 214.254748 11.9376737 219.129748 6.31267369 219.754748 6.31267369 219.754748 18.3126737 219.129748 18.3126737 214.254748 12.9376737 210.379748 12.9376737 210.379748 22.9376737 212.129748 24.9376737 220.254748 24.9376737 227.254748 16.4376737 227.879748 16.4376737 227.879748 25.8126737 197.879748 25.8126737 197.879748 24.9376737 201.754748 24.9376737 203.879748 22.6876737 203.879748 4.31267369"></polygon>
            <path d="M239.254748,25.0626737 L242.254748,25.0626737 L246.129748,20.3126737 L246.129748,4.68767369 C246.129748,3.93767369 246.129748,2.06267369 243.879748,2.06267369 L239.254748,2.06267369 L239.254748,1.18767369 L252.879748,1.18767369 L269.504748,20.6876737 L269.504748,6.81267369 L266.129748,2.06267369 L262.879748,2.06267369 L262.879748,1.18767369 L277.754748,1.18767369 L277.754748,2.06267369 L275.129748,2.06267369 L270.629748,6.81267369 L270.629748,25.8126737 L265.129748,25.8126737 L247.629748,5.31267369 L247.379748,5.31267369 L247.379748,20.1876737 L251.504748,24.9376737 L254.754748,24.9376737 L254.754748,25.8126737 L239.504748,25.8126737 L239.504748,25.0626737 L239.254748,25.0626737 Z" id="Shape"></path>
        </g>
    </g>
</svg>