<?xml version="1.0" encoding="UTF-8"?>
<svg width="165px" height="111px" viewBox="0 0 165 111" version="1.1" xmlns="http://www.w3.org/2000/svg" xmlns:xlink="http://www.w3.org/1999/xlink">
    <!-- Generator: Sketch 51.2 (57519) - http://www.bohemiancoding.com/sketch -->
    <title>Haversack_fnl</title>
    <desc>Created with Sketch.</desc>
    <defs/>
    <g id="Haversack_fnl" stroke="none" stroke-width="1" fill="none" fill-rule="evenodd">
        <g id="Group" transform="translate(6.000000, 17.750000)" fill="#1A1919">
            <path d="M11.0884,12.8853 C11.0884,13.0693 11.0884,13.0508 10.9224,13.0508 L7.9534,13.0508 C7.7879,13.0508 7.7694,13.0323 7.7694,12.8853 L7.7694,8.0173 L3.5844,8.0173 L3.5844,12.8853 C3.5844,13.0323 3.5659,13.0508 3.4364,13.0508 L0.4319,13.0508 C0.2654,13.0508 0.2654,13.0693 0.2654,12.8853 L0.2654,6.8188 L0.2654,0.7158 C0.2654,0.5313 0.2654,0.5503 0.4319,0.5503 L3.4364,0.5503 C3.5659,0.5503 3.5844,0.5688 3.5844,0.7158 L3.5844,5.0673 L7.7694,5.0673 L7.7694,0.7158 C7.7694,0.5688 7.7879,0.5503 7.9534,0.5503 L10.9224,0.5503 C11.0884,0.5503 11.0884,0.5313 11.0884,0.7158 L11.0884,6.8188 L11.0884,12.8853 Z" id="Fill-1"/>
            <path d="M25.58665,8.86605 L24.27765,6.06305 L23.02415,8.86605 L25.58665,8.86605 Z M22.10215,11.26205 C21.88065,11.77905 21.64115,12.40605 21.45665,12.84805 C21.40115,12.99605 21.36465,13.05105 21.12515,13.05105 L18.06465,13.05105 C17.91665,13.05105 17.88015,12.97755 17.97215,12.79305 C19.87115,8.71805 22.56265,3.27855 24.24065,0.14455 C24.25915,0.08955 24.66515,0.10805 24.68315,0.14455 C26.45315,3.59255 28.96065,8.71805 30.98865,12.79305 C31.09965,13.03255 31.08115,13.05105 30.91465,13.05105 L27.46765,13.05105 C27.37465,13.05105 27.30115,13.03255 27.24615,12.90305 C27.02465,12.40605 26.74815,11.72305 26.56415,11.26205 L22.10215,11.26205 Z" id="Fill-3"/>
            <path d="M41.13305,13.1429 C40.96705,13.4754 40.76455,13.4754 40.61655,13.1804 C38.55155,9.0864 36.85555,5.7494 34.58805,0.8824 C34.44005,0.5874 34.44005,0.5504 34.68005,0.5504 L37.81455,0.5504 C37.98005,0.5504 38.09105,0.5689 38.14655,0.6984 C38.75455,2.2279 40.96705,7.4834 40.96705,7.4834 C40.96705,7.4834 42.99505,2.2829 43.52955,0.7719 C43.58505,0.6064 43.67705,0.5504 43.89905,0.5504 L46.75655,0.5504 C46.99655,0.5504 47.01455,0.5689 46.86705,0.8824 C44.52555,5.9339 43.23505,8.6634 41.13305,13.1429" id="Fill-5"/>
            <path d="M54.1006,13.05085 C53.9161,13.05085 53.8976,13.01385 53.8976,12.79285 L53.8976,0.73435 C53.8976,0.56885 53.8791,0.55035 54.0631,0.55035 L62.3971,0.55035 C62.5816,0.55035 62.6001,0.56885 62.6001,0.79035 L62.6001,3.03985 C62.6001,3.20535 62.5446,3.29735 62.3971,3.29735 L57.1241,3.24235 L57.1241,5.32585 L62.2866,5.32585 C62.4526,5.32585 62.4711,5.36235 62.4711,5.58385 L62.4711,7.83285 C62.4711,8.05435 62.4526,8.09085 62.2866,8.09085 L57.1241,8.09085 L57.1241,10.23035 L62.5261,10.17435 C62.7291,10.17435 62.7291,10.17435 62.7291,10.41485 L62.7291,12.79285 C62.7291,13.01385 62.7111,13.05085 62.5261,13.05085 L54.1006,13.05085 Z" id="Fill-7"/>
            <path d="M75.3816,6.85605 C76.3776,6.81855 76.9311,6.08155 76.9311,5.01255 C76.9311,4.03555 76.4336,3.29755 75.3641,3.29755 L73.5381,3.29755 L73.5381,6.91055 L75.3816,6.85605 Z M76.0826,0.55055 C78.9216,0.55055 80.4336,2.50455 80.4336,4.77255 C80.4336,6.46905 79.8441,7.66755 78.7196,8.20155 C79.1991,8.95805 80.2496,10.82055 81.3191,12.55305 C81.5406,12.92155 81.4846,13.05105 81.2816,13.05105 L78.0191,13.05105 C77.8711,13.05105 77.7976,13.01355 77.6321,12.68255 C77.0046,11.48355 75.6591,9.36305 75.6591,9.36305 L73.5381,9.40005 L73.5381,12.88555 C73.5381,13.03255 73.5196,13.05105 73.3916,13.05105 L70.3666,13.05105 C70.2196,13.05105 70.2196,13.06955 70.2196,12.88555 L70.2196,6.81855 L70.2196,0.71605 C70.2196,0.53155 70.3121,0.55055 70.3666,0.55055 L76.0826,0.55055 Z" id="Fill-9"/>
            <path d="M87.88845,10.19295 L90.15645,9.27095 C90.32295,9.19745 90.32295,9.21595 90.35945,9.36295 C90.58095,10.04595 91.42845,10.85645 92.59095,10.85645 C93.86295,10.85645 94.45295,10.46945 94.45295,9.62145 C94.45295,8.86595 93.91795,8.38595 92.22145,8.18295 C92.09295,8.16545 91.90895,8.14695 91.77945,8.12795 C89.54895,7.90645 87.99945,6.65295 87.99945,4.36645 C87.99945,1.97045 89.64095,0.29245 92.90445,0.29245 C95.35695,0.29245 96.86795,1.45395 97.34695,3.00245 C97.40295,3.20495 97.32845,3.27845 97.21895,3.31595 L95.06145,4.18245 C94.93195,4.23845 94.87645,4.20095 94.83995,4.10895 C94.58145,3.37095 93.73345,2.65245 92.77495,2.65245 C91.48445,2.65245 91.07845,3.13145 91.07845,3.81395 C91.07845,4.66145 91.76095,5.01245 93.41995,5.28895 C93.58645,5.30745 93.78845,5.34395 94.02845,5.38095 C96.38845,5.71345 97.75295,6.96645 97.75295,9.27095 C97.75295,12.11095 95.41145,13.36445 92.51645,13.36445 C90.00945,13.36445 88.44245,12.34995 87.81495,10.54295 C87.74145,10.34095 87.76045,10.24895 87.88845,10.19295" id="Fill-11"/>
            <path d="M111.364,8.86605 L110.0545,6.06305 L108.8015,8.86605 L111.364,8.86605 Z M107.879,11.26205 C107.6585,11.77905 107.4185,12.40605 107.234,12.84805 C107.178,12.99605 107.142,13.05105 106.902,13.05105 L103.841,13.05105 C103.694,13.05105 103.657,12.97755 103.749,12.79305 C105.6485,8.71805 108.3405,3.27855 110.0185,0.14455 C110.036,0.08955 110.442,0.10805 110.4605,0.14455 C112.2305,3.59255 114.7385,8.71805 116.766,12.79305 C116.877,13.03255 116.858,13.05105 116.6925,13.05105 L113.245,13.05105 C113.1525,13.05105 113.078,13.03255 113.023,12.90305 C112.8015,12.40605 112.5255,11.72305 112.3415,11.26205 L107.879,11.26205 Z" id="Fill-13"/>
            <path d="M131.7593,8.55255 L134.5248,9.30805 C134.7093,9.36305 134.7278,9.43755 134.6908,9.54805 C133.8618,11.55705 131.7963,13.36455 128.9198,13.36455 C124.9928,13.36455 122.3753,10.39605 122.3753,6.85605 C122.3753,3.07555 125.2143,0.29255 128.8278,0.29255 C131.8698,0.29255 133.7323,1.93305 134.5623,3.81355 C134.6543,4.03555 134.5798,4.10905 134.5063,4.14605 L131.7593,5.21555 C131.6483,5.25155 131.6298,5.21555 131.5933,5.12305 C131.0588,4.01655 130.1738,3.44555 128.9013,3.44555 C127.0578,3.44555 125.8778,4.90155 125.8778,6.87455 C125.8778,9.17855 127.4078,10.23005 128.9573,10.23005 C130.2108,10.23005 131.0958,9.62155 131.5378,8.68055 C131.5933,8.58855 131.6123,8.51505 131.7593,8.55255" id="Fill-15"/>
            <path d="M145.1511,12.8853 C145.1511,13.0323 145.1321,13.0508 144.9851,13.0508 L141.9981,13.0508 C141.8326,13.0508 141.8326,13.0693 141.8326,12.8853 L141.8326,6.8188 L141.8326,0.7158 C141.8326,0.5313 141.8326,0.5503 141.9981,0.5503 L144.9851,0.5503 C145.1321,0.5503 145.1511,0.5688 145.1511,0.7158 L145.1511,6.2473 C145.1511,6.2473 147.7136,2.3388 148.7281,0.6608 C148.8016,0.5688 148.8566,0.5503 148.9496,0.5503 L152.2866,0.5503 C152.4711,0.5503 152.5071,0.6063 152.3966,0.7718 C151.1616,2.4493 148.7281,5.8418 148.7281,5.8418 C148.7281,5.8418 151.5126,10.7643 152.6741,12.7928 C152.8021,13.0138 152.7101,13.0508 152.5446,13.0508 L149.2076,13.0508 C149.0596,13.0508 149.0596,13.0138 148.9671,12.8293 C148.3776,11.7228 146.6631,8.4788 146.6631,8.4788 L145.1511,10.6173 L145.1511,12.8853 Z" id="Fill-17"/>
            <path d="M35.24095,44.58235 C35.62745,44.47685 35.88945,44.26485 36.02745,43.94585 C36.15645,43.65085 36.16645,43.30535 36.05745,42.90885 C35.92945,42.44385 35.84945,42.18835 35.81695,42.14185 C35.68745,41.96185 35.45745,41.91785 35.12695,42.00835 L33.30395,42.50935 C33.31995,42.87535 33.36345,43.18935 33.43545,43.44885 C33.71245,44.45935 34.31445,44.83685 35.24095,44.58235 M35.52695,46.08835 C34.05145,46.49435 32.96495,45.93735 32.26645,44.41685 C32.13345,44.13235 32.04395,43.87985 31.99745,43.65685 C31.96845,43.51435 31.94895,43.35185 31.93895,43.16935 L31.92845,42.93985 C31.91395,42.88885 31.86895,42.87885 31.79245,42.90985 L29.39445,43.58335 C29.09145,43.66635 28.91545,43.74485 28.86595,43.81835 C28.82295,43.84535 28.74995,43.99885 28.64595,44.27735 L27.97845,41.84785 L28.34545,42.14485 C28.41045,42.16135 28.57295,42.13435 28.83395,42.06285 L35.81645,40.14435 C35.92095,40.07085 36.02295,39.91235 36.12145,39.66985 C36.13695,39.69085 36.22645,39.81385 36.38795,40.03935 C36.48495,40.17285 36.55195,40.30785 36.58895,40.44335 L37.25445,42.86535 C37.47095,43.65185 37.43245,44.33185 37.13945,44.90635 C36.84695,45.47985 36.30895,45.87385 35.52695,46.08835" id="Fill-19"/>
            <path d="M39.6399,54.10405 C39.9869,53.90355 40.1859,53.63105 40.2384,53.28855 C40.2874,52.96955 40.2094,52.63205 40.0039,52.27705 C39.7609,51.86005 39.6184,51.63355 39.5754,51.59705 C39.4039,51.45555 39.1709,51.47205 38.8739,51.64355 L37.2389,52.59205 C37.3474,52.94155 37.4694,53.23355 37.6049,53.46755 C38.1309,54.37455 38.8089,54.58655 39.6399,54.10405 M35.0809,58.75805 L33.8824,56.69055 C34.0504,56.72055 34.1744,56.71355 34.2539,56.66705 C34.2914,56.64555 34.4104,56.51805 34.6099,56.28505 L36.3769,54.22205 C36.3004,54.11055 36.2144,53.92805 36.1189,53.67655 C36.0204,53.41055 35.9864,53.30405 36.0184,53.35905 C35.9914,53.31255 35.9449,53.31405 35.8794,53.36405 L33.7314,54.62655 C33.4599,54.78405 33.3094,54.90405 33.2799,54.98805 C33.2459,55.02505 33.2134,55.19205 33.1849,55.48805 L31.9204,53.30805 L32.3509,53.50155 C32.4179,53.50155 32.5684,53.43455 32.8024,53.29905 L39.0664,49.66555 C39.1484,49.56755 39.2069,49.38805 39.2404,49.12855 C39.2609,49.14505 39.3784,49.24105 39.5924,49.41805 C39.7204,49.52255 39.8189,49.63555 39.8894,49.75655 L41.1504,51.93055 C41.5594,52.63605 41.6954,53.30405 41.5584,53.93355 C41.4209,54.56255 41.0019,55.08005 40.2999,55.48705 C39.2519,56.09555 38.2834,56.05105 37.3944,55.35655 L37.3409,55.43755 L35.4199,57.68105 C35.1839,57.95755 35.0709,58.31705 35.0809,58.75805" id="Fill-21"/>
            <path d="M45.6238,64.337 C47.1158,62.838 47.3773,61.6065 46.4093,60.6425 C45.4513,59.6895 44.2263,59.9615 42.7348,61.4605 C41.2428,62.958 40.9758,64.1845 41.9338,65.138 C42.9023,66.1015 44.1323,65.8345 45.6238,64.337 M46.6758,65.3835 C44.5638,67.505 42.6733,67.734 41.0038,66.0725 C39.3378,64.4135 39.5608,62.5235 41.6723,60.4025 C43.7838,58.2815 45.6728,58.05 47.3388,59.709 C49.0088,61.3715 48.7878,63.2625 46.6758,65.3835" id="Fill-23"/>
            <path d="M55.60255,71.0069 C56.58055,69.2409 56.42105,67.9999 55.12455,67.2814 C55.04855,67.2394 54.93655,67.1729 54.78855,67.0829 C54.64005,66.9919 54.52755,66.9254 54.45155,66.8829 C54.16005,66.7219 53.93805,66.7784 53.78655,67.0529 L51.23855,71.6519 C51.05305,71.9854 51.09855,72.2284 51.37255,72.3804 L51.84155,72.6404 C51.87105,72.6559 51.89205,72.6684 51.90455,72.6744 C51.91555,72.6754 51.91055,72.6694 51.88905,72.6579 C53.31655,73.4484 54.55455,72.8979 55.60255,71.0069 M57.08905,71.6559 C55.59105,74.3584 53.63655,75.0414 51.22555,73.7064 C51.02755,73.5954 50.73555,73.4209 50.35055,73.1794 C49.96505,72.9384 49.67305,72.7634 49.47505,72.6529 C49.25055,72.5284 48.96855,72.3059 48.62805,71.9854 C49.05655,71.9084 49.41455,71.6124 49.69955,71.0969 L52.51055,66.0229 C52.66305,65.7484 52.74805,65.5449 52.76705,65.4124 C52.79105,65.2384 52.74505,65.0219 52.62855,64.7644 C53.24455,64.9174 53.98305,65.2334 54.84455,65.7104 L55.70605,66.1874 C56.80855,66.7984 57.47005,67.5964 57.69205,68.5794 C57.90755,69.5164 57.70655,70.5409 57.08905,71.6559" id="Fill-25"/>
            <path d="M69.24465,71.00495 C69.04415,71.09695 68.93015,71.17145 68.90115,71.22945 C68.92615,71.18595 68.90315,71.32145 68.82865,71.63645 L67.81665,75.99495 C67.54115,77.17595 67.10215,77.99045 66.49715,78.43995 C65.83965,78.92145 64.93065,79.02645 63.76915,78.75645 C62.89915,78.55495 62.25865,78.19745 61.84765,77.68495 C61.38865,77.12295 61.25715,76.41845 61.45415,75.57145 L62.70065,70.21095 C62.77365,69.89645 62.80965,69.76395 62.80815,69.81245 C62.81265,69.74945 62.74365,69.63095 62.60015,69.45945 L64.69515,69.94695 C64.48215,70.09495 64.36415,70.19645 64.34165,70.25145 L63.09865,75.59745 C62.85565,76.64095 63.20915,77.27345 64.15965,77.49445 C65.20315,77.73695 65.84665,77.33645 66.08915,76.29295 L67.26365,71.24295 C67.31565,71.01695 67.33215,70.86945 67.31315,70.80095 C67.31015,70.77495 67.25965,70.68195 67.16415,70.52045 L69.24465,71.00495 Z" id="Fill-27"/>
            <path d="M79.2849,70.9251 L78.5074,73.4011 C78.4984,73.4116 78.4859,73.4186 78.4724,73.4241 L78.4569,73.4021 C78.2014,72.7161 77.5939,72.3886 76.6344,72.4206 C75.3694,72.4641 74.7734,73.5396 74.8454,75.6481 C74.9089,77.5156 75.6134,78.4261 76.9604,78.3806 C77.3754,78.3661 77.6724,78.1776 77.8534,77.8136 C77.9094,77.6046 77.9714,77.3891 78.0419,77.1696 L79.4509,77.2741 C79.4329,79.0326 78.4889,79.9436 76.6164,80.0081 C75.4634,80.0471 74.5909,79.5991 73.9989,78.6626 C73.5184,77.9016 73.2579,76.9026 73.2154,75.6676 C73.1739,74.4421 73.3829,73.4156 73.8424,72.5886 C74.3984,71.5896 75.2544,71.0701 76.4124,71.0306 C76.8029,71.0171 77.1929,71.0451 77.5824,71.1136 C77.9559,71.1786 78.2569,71.2281 78.4859,71.2646 C78.6794,71.2916 78.9464,71.1786 79.2849,70.9251" id="Fill-29"/>
            <path d="M89.3025,68.30135 L89.791,70.72635 L89.756,70.73685 C89.4905,70.26285 89.232,70.00935 88.9795,69.97485 C88.8635,69.95935 88.5405,70.03185 88.0085,70.19435 C87.732,70.27835 87.5665,70.34885 87.5125,70.40585 C87.4215,70.50385 87.4125,70.67035 87.484,70.90635 L89.265,76.75985 C89.3235,76.94935 89.4245,77.08285 89.5685,77.15935 C89.758,77.23385 89.938,77.30435 90.111,77.37385 L87.3535,78.21185 C87.4725,78.05485 87.584,77.89535 87.691,77.73085 C87.7685,77.58685 87.778,77.41935 87.721,77.22985 L85.9395,71.37635 C85.867,71.14035 85.7665,71.00785 85.636,70.97685 C85.5595,70.95935 85.3835,70.99335 85.106,71.07735 C84.566,71.24185 84.2545,71.36185 84.1715,71.43735 C83.9895,71.60385 83.921,71.95785 83.9645,72.49935 L83.9305,72.50985 L82.978,70.22635 C83.3475,70.33135 83.588,70.36635 83.6985,70.33235 L88.763,68.79085 C88.8835,68.75435 89.0635,68.59235 89.3025,68.30135" id="Fill-31"/>
            <path d="M99.2776,73.13705 L97.2021,74.30755 C97.2891,74.09755 97.3266,73.93855 97.3151,73.82855 C97.3056,73.74455 97.2436,73.59955 97.1276,73.39405 L93.7191,67.35105 C93.5536,67.05705 93.3051,66.87805 92.9756,66.81455 L95.0511,65.64405 C94.9416,65.97105 94.9676,66.27655 95.1256,66.55805 L98.5346,72.60005 C98.6556,72.81405 98.7466,72.94255 98.8096,72.98505 C98.9006,73.05005 99.0571,73.10105 99.2776,73.13705" id="Fill-33"/>
            <path d="M105.4734,62.96025 C104.0544,61.39325 102.8379,61.06675 101.8259,61.98425 C100.8229,62.89075 101.0309,64.12775 102.4499,65.69575 C103.8694,67.26375 105.0789,67.59425 106.0809,66.68775 C107.0944,65.77075 106.8914,64.52825 105.4734,62.96025 M106.5739,61.96425 C108.5819,64.18475 108.7124,66.08425 106.9659,67.66475 C105.2219,69.24175 103.3464,68.92125 101.3384,66.70175 C99.3304,64.48175 99.1979,62.58375 100.9409,61.00575 C102.6879,59.42525 104.5659,59.74525 106.5739,61.96425" id="Fill-35"/>
            <path d="M109.83105,49.97515 C109.86205,50.23415 109.88605,50.37665 109.90355,50.40465 C109.92605,50.47615 110.03205,50.57115 110.22005,50.68915 L116.38505,54.57065 C116.63055,54.72515 116.83205,54.78415 116.99305,54.74765 L116.05905,56.23015 L109.21955,55.52715 L109.20805,55.54615 L113.50955,58.25365 C114.04055,58.58815 114.40705,58.68215 114.60805,58.53515 L113.39705,60.45965 C113.37105,60.19265 113.35055,60.04765 113.33605,60.02715 C113.30055,59.96465 113.18905,59.87465 113.00055,59.75665 L107.02605,55.99515 C106.70305,55.79215 106.42155,55.71765 106.18255,55.77165 L107.32855,53.95215 L113.59905,54.67315 L113.62255,54.63715 L109.51005,52.04815 C109.30655,51.92015 109.16555,51.84865 109.08905,51.83415 C108.92655,51.76665 108.77005,51.78765 108.62005,51.89965 L109.83105,49.97515 Z" id="Fill-37"/>
            <path d="M119.0991,41.9305 C119.9086,42.1725 120.4646,42.647 120.7676,43.3515 C121.0586,44.0135 121.0801,44.7565 120.8341,45.579 C120.7396,45.894 120.5316,46.285 120.2111,46.753 C119.8386,47.2915 119.6066,47.671 119.5156,47.8905 C119.4241,48.11 119.4201,48.459 119.5041,48.938 L117.5901,47.2765 C118.0276,47.226 118.4376,46.994 118.8196,46.579 C119.1571,46.2065 119.3951,45.7885 119.5341,45.3265 C119.8206,44.369 119.5776,43.775 118.8051,43.5435 C118.2641,43.3815 117.7576,43.5825 117.2866,44.148 L116.1181,45.5515 C115.4351,46.37 114.6516,46.6475 113.7686,46.3825 C113.0286,46.161 112.5286,45.7015 112.2686,45.0035 C112.0351,44.37 112.0326,43.6715 112.2606,42.908 C112.3141,42.7275 112.4261,42.4625 112.5936,42.1115 C112.7616,41.762 112.8711,41.4905 112.9226,41.3 C113.0016,41.021 113.0056,40.6945 112.9361,40.321 L115.0116,41.8715 C114.5481,41.8395 114.2116,41.938 114.0016,42.1665 C113.8586,42.326 113.7106,42.6615 113.5566,43.1745 C113.3051,44.016 113.4841,44.5285 114.0946,44.7115 C114.5156,44.837 114.9766,44.577 115.4776,43.9315 L116.2551,42.924 C117.0271,41.9255 117.9751,41.594 119.0991,41.9305" id="Fill-39"/>
            <path d="M59.7505,26.85995 L59.7505,31.17945 C59.77,31.42545 60.3825,38.86795 68.695,38.86795 L81.566,38.86795 C89.879,38.86795 90.4905,31.42545 90.5125,31.10895 L90.5105,26.85995 L59.7505,26.85995 Z M81.566,40.98745 L68.695,40.98745 C58.3685,40.98745 57.639,31.34395 57.6325,31.24645 L57.6305,24.73995 L92.63,24.73995 L92.63,31.17945 C92.622,31.34395 91.892,40.98745 81.566,40.98745 Z" id="Fill-41"/>
            <path d="M81.56615,53.75005 L68.69515,53.75005 C58.36865,53.75005 57.63915,44.10705 57.63265,44.01005 L57.63065,40.43155 L59.75065,40.43155 L59.75065,43.94255 C59.77015,44.18905 60.38215,51.63005 68.69515,51.63005 L81.56615,51.63005 C89.92565,51.63005 90.49265,44.19205 90.51265,43.87555 L90.51015,40.43155 L92.63015,40.43155 L92.63015,43.94255 C92.62165,44.10705 91.89215,53.75005 81.56615,53.75005" id="Fill-43"/>
            <polygon id="Fill-45" points="80.444 44.9435 82.564 44.9435 82.564 35.186 80.444 35.186"/>
            <polygon id="Fill-47" points="78.772 36.246 84.236 36.246 84.236 34.126 78.772 34.126"/>
            <polygon id="Fill-48" points="78.772 46.0035 84.236 46.0035 84.236 43.884 78.772 43.884"/>
            <polygon id="Fill-49" points="67.6975 44.9435 69.8175 44.9435 69.8175 35.186 67.6975 35.186"/>
            <polygon id="Fill-50" points="66.025 36.246 71.489 36.246 71.489 34.126 66.025 34.126"/>
            <polygon id="Fill-51" points="66.025 46.0035 71.489 46.0035 71.489 43.884 66.025 43.884"/>
        </g>
    </g>
</svg>