<?xml version="1.0" encoding="UTF-8"?>
<svg width="116px" height="97px" viewBox="0 0 116 97" version="1.1" xmlns="http://www.w3.org/2000/svg" xmlns:xlink="http://www.w3.org/1999/xlink">
    <!-- Generator: Sketch 51.2 (57519) - http://www.bohemiancoding.com/sketch -->
    <title>Group</title>
    <desc>Created with Sketch.</desc>
    <defs/>
    <g id="Page-1" stroke="none" stroke-width="1" fill="none" fill-rule="evenodd">
        <g id="Group" transform="translate(0.089844, -0.383431)" fill="#C9B975">
            <path d="M7.24369677,7.74278355 L7.24369677,21.9925863 C7.30802624,22.8041273 9.32863144,47.3565424 36.7511306,47.3565424 L79.2118809,47.3565424 C106.63603,47.3565424 108.653336,22.8041273 108.725913,21.7600105 L108.719315,7.74278355 L7.24369677,7.74278355 Z M79.2118809,54.3486611 L36.7511306,54.3486611 C2.68455164,54.3486611 0.277969605,22.5352631 0.256526448,22.2136157 L0.249928553,0.749015336 L115.711434,0.749015336 L115.711434,21.9925863 C115.685042,22.5352631 113.27681,54.3486611 79.2118809,54.3486611 Z" id="Fill-41"/>
            <path d="M79.2123758,96.4518055 L36.7516255,96.4518055 C2.68504648,96.4518055 0.278464447,64.640057 0.25702129,64.3200591 L0.250423396,52.5147763 L7.24419161,52.5147763 L7.24419161,64.0973802 C7.30852108,64.9105707 9.32747681,89.4580373 36.7516255,89.4580373 L79.2123758,89.4580373 C106.789925,89.4580373 108.660429,64.9204675 108.726408,63.8763507 L108.71816,52.5147763 L115.711928,52.5147763 L115.711928,64.0973802 C115.683887,64.640057 113.277305,96.4518055 79.2123758,96.4518055" id="Fill-43"/>
            <polygon id="Fill-45" points="75.5104621 67.3994615 82.5042303 67.3994615 82.5042303 35.2099835 75.5104621 35.2099835"/>
            <polygon id="Fill-47" points="69.9946223 38.7068676 88.0200701 38.7068676 88.0200701 31.7130994 69.9946223 31.7130994"/>
            <polygon id="Fill-48" points="69.9946223 70.8963456 88.0200701 70.8963456 88.0200701 63.9042268 69.9946223 63.9042268"/>
            <polygon id="Fill-49" points="33.4604307 67.3994615 40.4541989 67.3994615 40.4541989 35.2099835 33.4604307 35.2099835"/>
            <polygon id="Fill-50" points="27.9429414 38.7068676 45.9683893 38.7068676 45.9683893 31.7130994 27.9429414 31.7130994"/>
            <polygon id="Fill-51" points="27.9429414 70.8963456 45.9683893 70.8963456 45.9683893 63.9042268 27.9429414 63.9042268"/>
        </g>
    </g>
</svg>