<?xml version="1.0" encoding="UTF-8"?>
<svg width="301px" height="78px" viewBox="0 0 301 78" version="1.1" xmlns="http://www.w3.org/2000/svg" xmlns:xlink="http://www.w3.org/1999/xlink">
    <!-- Generator: Sketch 51.2 (57519) - http://www.bohemiancoding.com/sketch -->
    <title>Mercado Logo Footer</title>
    <desc>Created with Sketch.</desc>
    <defs>
        <polygon id="path-1" points="0.379748101 51.7526669 0.379748101 0.0292102006 229.802201 0.0292102006 229.802201 51.7526669"></polygon>
    </defs>
    <g id="Mercado-Logo-Footer" stroke="none" stroke-width="1" fill="none" fill-rule="evenodd">
        <g id="Group" transform="translate(35.625000, 12.500000)">
            <path d="M76.1317266,44.0503125 L76.1317266,50.2834772 L77.6250617,50.2834772 C79.2233763,50.2834772 80.7560787,49.5722403 80.7560787,47.1655826 C80.7560787,44.7615494 79.2233763,44.0503125 77.6250617,44.0503125 L76.1317266,44.0503125 Z M82.4016342,47.1655826 C82.4016342,50.4986854 80.0842092,51.5983469 77.6119392,51.5983469 L74.5097916,51.5983469 L74.5097916,42.7354428 L77.6119392,42.7354428 C80.0842092,42.7354428 82.4016342,43.8351043 82.4016342,47.1655826 Z" id="Fill-1" fill="#C9B975"></path>
            <mask id="mask-2" fill="white">
                <use xlink:href="#path-1"></use>
            </mask>
            <g id="Clip-4"></g>
            <polygon id="Fill-3" fill="#C9B975" mask="url(#mask-2)" points="87.9616171 51.597822 89.5835522 51.597822 89.5835522 42.7322934 87.9616171 42.7322934"></polygon>
            <path d="M101.291141,44.5447665 C100.354198,44.140595 99.5694757,43.9253868 98.4671897,43.9253868 C97.3544058,43.9253868 96.7061566,44.140595 96.7061566,45.0250482 C96.7061566,45.4423422 96.8452546,45.7992729 99.1889246,46.4658935 C100.645517,46.8884364 102.165097,47.1666324 102.165097,49.0667634 C102.165097,51.2713354 100.152113,51.7516171 98.4042019,51.7516171 C96.9843526,51.7516171 95.8584462,51.4340538 94.6433072,50.686074 L95.3781645,49.470935 C96.4279607,50.0929392 97.3281609,50.4052535 98.3149693,50.4052535 C99.202047,50.4052535 100.519541,50.155927 100.519541,49.0798859 C100.519541,48.1796857 99.5825981,47.9775999 98.6587775,47.7361468 C96.3649729,47.1535099 95.0710991,46.6968486 95.0710991,45.0486687 C95.0710991,43.3926152 96.3780953,42.5790232 98.5669203,42.5790232 C99.480243,42.5790232 100.595651,42.7207457 101.784546,43.3296274 L101.291141,44.5447665 Z" id="Fill-5" fill="#C9B975" mask="url(#mask-2)"></path>
            <polygon id="Fill-6" fill="#C9B975" mask="url(#mask-2)" points="114.03173 43.9988725 111.079178 43.9988725 111.079178 51.5993967 109.457243 51.5993967 109.457243 43.9988725 106.481071 43.9988725 106.481071 42.7338681 114.03173 42.7338681"></polygon>
            <path d="M120.716045,44.0503125 L120.716045,46.6721784 L122.870751,46.6721784 C123.907425,46.6721784 124.542552,46.4149784 124.542552,45.3573087 C124.542552,44.3048881 123.907425,44.0503125 122.870751,44.0503125 L120.716045,44.0503125 Z M122.870751,42.7354428 C124.946723,42.7354428 126.177609,43.3915654 126.177609,45.3678067 C126.177609,46.4963376 125.707825,47.5225133 124.377209,47.863697 L125.224919,49.3963994 C125.52936,49.939669 125.846923,50.6246609 126.631646,50.5485507 L126.631646,51.7138245 C126.379695,51.7400694 126.164487,51.7531918 125.949278,51.7531918 C124.983466,51.7531918 124.453319,51.1941754 124.022902,50.4094527 L122.668665,47.9896726 L120.716045,47.9896726 L120.716045,51.5983469 L119.09411,51.5983469 L119.09411,42.7354428 L122.870751,42.7354428 Z" id="Fill-7" fill="#C9B975" mask="url(#mask-2)"></path>
            <polygon id="Fill-8" fill="#C9B975" mask="url(#mask-2)" points="131.189598 51.597822 132.811533 51.597822 132.811533 42.7322934 131.189598 42.7322934"></polygon>
            <path d="M145.48336,44.4935889 C144.533295,44.0631725 143.559609,43.9240745 142.900862,43.9240745 C141.567621,43.9240745 140.011298,44.7114216 140.011298,47.21781 C140.011298,49.7766881 141.620111,50.4091903 142.646286,50.4091903 C143.583229,50.4091903 144.71176,50.0680065 145.533226,49.5824758 L146.202471,50.7766189 C145.291773,51.3592558 143.924413,51.7529294 142.606919,51.7529294 C140.722535,51.7529294 138.37624,50.7267536 138.37624,47.2283079 C138.37624,43.8217194 140.617555,42.5803354 142.848372,42.5803354 C143.88767,42.5803354 144.861356,42.7719232 145.966267,43.3283152 L145.48336,44.4935889 Z" id="Fill-9" fill="#C9B975" mask="url(#mask-2)"></path>
            <polygon id="Fill-10" fill="#C9B975" mask="url(#mask-2)" points="158.070154 43.9988725 155.117602 43.9988725 155.117602 51.5993967 153.498292 51.5993967 153.498292 43.9988725 150.52212 43.9988725 150.52212 42.7338681 158.070154 42.7338681"></polygon>
            <path d="M39.5258595,49.3656929 C39.5258595,49.5362848 39.512737,49.5966481 39.3972595,49.5966481 L37.4525121,49.5966481 C37.3632794,49.5966481 37.3160386,49.5467827 37.3160386,49.4601746 L37.3160386,46.197933 C37.3160386,46.1087003 37.3632794,46.0614595 37.4525121,46.0614595 L39.3683901,46.0614595 C39.4812432,46.0614595 39.4969901,46.1191983 39.4969901,46.2924146 C39.4969901,46.4682555 39.4812432,46.5233698 39.3683901,46.5233698 L37.885553,46.5233698 L37.885553,47.5337986 L39.0455778,47.5337986 C39.1558063,47.5337986 39.1715533,47.5941619 39.1715533,47.7700027 C39.1715533,47.9405946 39.1558063,47.9983334 39.0455778,47.9983334 L37.885553,47.9983334 L37.885553,49.1347377 L39.3972595,49.1347377 C39.512737,49.1347377 39.5258595,49.189852 39.5258595,49.3656929" id="Fill-11" fill="#C9B975" mask="url(#mask-2)"></path>
            <path d="M43.6562825,46.5028988 C43.1996212,46.5028988 43.0474007,46.7102335 43.0474007,46.9779315 C43.0474007,47.2430051 43.2442375,47.4004745 43.7560131,47.5238255 C44.4567521,47.6917929 44.8294297,47.9831114 44.8294297,48.5814952 C44.8294297,49.185128 44.3491479,49.6470383 43.51456,49.6470383 C43.1838742,49.6470383 42.8951803,49.591924 42.6589761,49.5079403 C42.4778863,49.4449525 42.43327,49.3504709 42.43327,49.2244953 C42.43327,49.0827728 42.4936332,48.9279279 42.6012373,48.9279279 C42.7193394,48.9279279 43.0132823,49.1562586 43.5381804,49.1562586 C44.0237111,49.1562586 44.2310459,48.9489238 44.2310459,48.6418585 C44.2310459,48.355789 44.049956,48.1720747 43.4594457,48.0356012 C42.8164456,47.8781317 42.4542659,47.5736909 42.4542659,47.0435438 C42.4542659,46.4766539 42.8321925,46.0121191 43.6615315,46.0121191 C43.9423519,46.0121191 44.1759316,46.0409885 44.4095112,46.1039762 C44.5879766,46.1538416 44.6430909,46.2456987 44.6430909,46.3769232 C44.6430909,46.5081478 44.5879766,46.6708662 44.4803725,46.6708662 C44.3780173,46.6708662 44.1181928,46.5028988 43.6562825,46.5028988" id="Fill-12" fill="#C9B975" mask="url(#mask-2)"></path>
            <path d="M50.3007048,46.3055371 C50.3007048,46.4866269 50.2875824,46.5469902 50.1747293,46.5469902 L49.156427,46.5469902 L49.156427,49.4654235 C49.156427,49.5913991 49.0881903,49.607146 48.872982,49.607146 C48.6551493,49.607146 48.5869126,49.5913991 48.5869126,49.4654235 L48.5869126,46.5469902 L47.5659858,46.5469902 C47.4531327,46.5469902 47.4373858,46.4866269 47.4373858,46.3055371 C47.4373858,46.1191983 47.4531327,46.0614595 47.5659858,46.0614595 L50.1747293,46.0614595 C50.2875824,46.0614595 50.3007048,46.1191983 50.3007048,46.3055371" id="Fill-13" fill="#C9B975" mask="url(#mask-2)"></path>
            <path d="M176.400645,49.3504709 C176.400645,49.5315607 176.382273,49.5997974 176.287792,49.5997974 L174.28793,49.5997974 C174.209195,49.5997974 174.175077,49.5604301 174.156705,49.4292056 C174.135709,49.2953566 174.146207,49.2691117 174.264309,49.1431361 C175.172383,48.2035686 175.791763,47.4582133 175.791763,46.985805 C175.791763,46.6761151 175.621171,46.5028988 175.201253,46.5028988 C174.741967,46.5028988 174.482142,46.718107 174.361416,46.718107 C174.269558,46.718107 174.203946,46.5422661 174.203946,46.4110416 C174.203946,46.2903151 174.248563,46.2194538 174.434901,46.1485926 C174.665856,46.0593599 174.941428,46.0147436 175.256367,46.0147436 C176.046338,46.0147436 176.371775,46.3742987 176.371775,46.8991968 C176.371775,47.531699 175.786514,48.1878216 174.881065,49.1090177 L176.287792,49.1090177 C176.382273,49.1090177 176.400645,49.1772545 176.400645,49.3504709" id="Fill-14" fill="#C9B975" mask="url(#mask-2)"></path>
            <path d="M181.40476,47.828004 C181.40476,46.7283425 181.076699,46.4816404 180.693524,46.4816404 C180.305099,46.4816404 179.984911,46.7283425 179.984911,47.828004 C179.984911,48.9276655 180.305099,49.176992 180.693524,49.176992 C181.076699,49.176992 181.40476,48.9276655 181.40476,47.828004 M179.404899,47.828004 C179.404899,46.4501465 179.956042,46.0144811 180.693524,46.0144811 C181.43363,46.0144811 181.984773,46.4501465 181.984773,47.828004 C181.984773,49.2084859 181.43363,49.6441513 180.693524,49.6441513 C179.956042,49.6441513 179.404899,49.2084859 179.404899,47.828004" id="Fill-15" fill="#C9B975" mask="url(#mask-2)"></path>
            <path d="M187.022745,47.828004 C187.022745,46.7283425 186.692059,46.4816404 186.308883,46.4816404 C185.923083,46.4816404 185.602895,46.7283425 185.602895,47.828004 C185.602895,48.9276655 185.923083,49.176992 186.308883,49.176992 C186.692059,49.176992 187.022745,48.9276655 187.022745,47.828004 M185.022883,47.828004 C185.022883,46.4501465 185.574026,46.0144811 186.308883,46.0144811 C187.051614,46.0144811 187.602757,46.4501465 187.602757,47.828004 C187.602757,49.2084859 187.051614,49.6441513 186.308883,49.6441513 C185.574026,49.6441513 185.022883,49.2084859 185.022883,47.828004" id="Fill-16" fill="#C9B975" mask="url(#mask-2)"></path>
            <path d="M190.734036,49.511877 C190.597563,49.4620117 190.531951,49.383277 190.531951,49.254677 C190.531951,49.1313259 190.602812,48.971232 190.699918,48.971232 C190.791775,48.971232 191.054224,49.1733178 191.508261,49.1733178 C191.983294,49.1733178 192.306106,48.9791055 192.306106,48.5828074 C192.306106,48.1340196 191.870441,47.9713012 191.377037,47.9713012 L191.251061,47.9713012 C191.140833,47.9713012 191.117212,47.8663215 191.117212,47.7036031 C191.117212,47.601248 191.153955,47.5697541 191.235314,47.5697541 L191.258935,47.5697541 C191.917682,47.5697541 192.232621,47.2810602 192.232621,46.9477499 C192.232621,46.6721784 192.064653,46.4832151 191.623739,46.4832151 C191.195947,46.4832151 190.930873,46.6853009 190.823269,46.6853009 C190.739285,46.6853009 190.676298,46.519958 190.676298,46.3966069 C190.676298,46.2732559 190.739285,46.1918967 190.902004,46.1367824 C191.140833,46.0527987 191.377037,46.0108068 191.663106,46.0108068 C192.44258,46.0108068 192.768017,46.386109 192.768017,46.8506438 C192.768017,47.2731867 192.487196,47.5802521 192.054155,47.7036031 L192.054155,47.7141011 C192.510816,47.8138317 192.865123,48.0894032 192.865123,48.6038033 C192.865123,49.3071668 192.248367,49.6483505 191.563375,49.6483505 C191.209069,49.6483505 190.97549,49.6011097 190.734036,49.511877" id="Fill-17" fill="#C9B975" mask="url(#mask-2)"></path>
            <polygon id="Fill-19" fill="#C9B975" mask="url(#mask-2)" points="7.21969497 19.5711657 10.4609406 23.6338768 13.2875168 23.6338768 13.2875168 24.4553423 0.380273 24.4553423 0.380273 23.6338768 3.05462871 23.6338768 6.29324986 19.5711657 6.29324986 2.75343123 5.31693943 1.47005543 0.380273 1.47005543 0.380273 0.645965444 14.0092516 0.645965444 20.8985389 16.1252098 27.0188505 0.645965444 39.9260943 0.645965444 39.9260943 1.47005543 36.5824935 1.47005543 34.4251624 3.62738653 34.4251624 21.4739212 36.5824935 23.6338768 39.9260943 23.6338768 39.9260943 24.4553423 22.9062741 24.4553423 22.9062741 23.6338768 26.1947605 23.6338768 28.3547161 21.4739212 28.3547161 2.29152092 27.2760506 2.29152092 18.5863629 24.4553423 17.9696076 24.4553423 8.19862989 2.29152092 7.21969497 2.29152092"></polygon>
            <polygon id="Fill-20" fill="#C9B975" mask="url(#mask-2)" points="41.9889437 23.6336144 45.3325445 23.6336144 47.4925001 21.4736588 47.4925001 3.62712408 45.3325445 1.46979298 41.9889437 1.46979298 41.9889437 0.645702995 70.0158767 0.645702995 70.3780563 9.64508056 69.8111664 9.64508056 63.8981896 1.46979298 55.5654325 1.46979298 53.9198771 3.62712408 53.9198771 11.1882809 57.5180534 11.1882809 61.995434 5.99441442 62.6121893 5.99441442 62.6121893 17.3558333 61.995434 17.3558333 57.5180534 12.0622362 53.9198771 12.0622362 53.9198771 21.4736588 55.4630774 23.4761449 63.2289445 23.4761449 69.8111664 15.4557023 70.3780563 15.4557023 70.3780563 24.4524554 41.9889437 24.4524554"></polygon>
            <path d="M90.3869087,11.4439063 C95.4259302,11.4439063 98.1501513,9.69599567 98.1501513,6.56235414 C98.1501513,3.47595344 95.6831303,1.46821828 91.2083742,1.46821828 L87.969753,1.46821828 L86.3241975,3.62554939 L86.3241975,11.4439063 L90.3869087,11.4439063 Z M74.3932642,23.6346642 L77.736865,23.6346642 L79.8941961,21.4720841 L79.8941961,3.62554939 L77.736865,1.46821828 L74.3932642,1.46821828 L74.3932642,0.646752791 L93.3158399,0.646752791 C100.979352,0.646752791 104.989573,2.96155332 104.989573,6.40488472 C104.989573,9.59101606 101.701087,11.1867062 94.9115301,11.7535961 L94.39713,12.3178616 L94.39713,12.8847515 C95.4259302,13.8610619 97.1738408,14.3282212 99.7458414,14.3282212 L100.157886,14.3282212 C100.876997,17.5143526 101.596107,20.2411981 102.470062,22.5008843 L103.653708,23.6346642 L106.482908,23.6346642 L106.482908,24.4561297 L96.6095754,24.4561297 L94.9115301,18.3358181 C93.6255298,13.7613313 92.1873091,12.3178616 88.4316633,12.3178616 L86.3241975,12.3178616 L86.3241975,21.4720841 L87.969753,23.6346642 L91.5705538,23.6346642 L91.5705538,24.4561297 L74.3932642,24.4561297 L74.3932642,23.6346642 Z" id="Fill-21" fill="#C9B975" mask="url(#mask-2)"></path>
            <path d="M132.868485,14.4786045 C132.40395,20.8587407 127.829463,25.0710478 120.990041,25.0710478 C112.709774,25.0710478 106.899152,19.8273159 106.899152,12.7280694 C106.899152,5.47922696 112.914484,0.0281604044 121.039907,0.0281604044 C124.023952,0.0281604044 126.543463,0.799760581 128.548574,2.39545074 L131.88955,0.0281604044 L132.50893,0.0281604044 L132.50893,10.5733628 L131.88955,10.5733628 C130.194129,4.3480716 126.441108,0.902115706 121.659286,0.902115706 C116.46542,0.902115706 114.200485,4.70762678 114.200485,12.2162938 C114.200485,20.2393609 115.84604,23.8375373 122.068707,23.8375373 C127.367553,23.8375373 131.377774,19.9821609 131.787195,14.4786045 L132.868485,14.4786045 Z" id="Fill-22" fill="#C9B975" mask="url(#mask-2)"></path>
            <path d="M150.309536,16.07272 L145.884645,6.35160756 L145.06318,6.35160756 L139.612113,16.07272 L150.309536,16.07272 Z M131.33447,23.6338768 C132.772691,23.5315217 134.932647,21.7311213 136.166157,19.6236555 L147.12078,0.383516404 L149.692781,0.383516404 L159.463758,21.6786315 L162.342824,23.6338768 L164.090735,23.6338768 L164.090735,24.4553423 L148.35429,24.4553423 L148.35429,23.6338768 L151.747757,23.6338768 L153.033757,22.088052 L150.873801,17.308855 L138.995358,17.308855 L137.607002,19.7260106 L139.407403,23.6338768 L141.360024,23.6338768 L141.360024,24.4553423 L131.33447,24.4553423 L131.33447,23.6338768 Z" id="Fill-23" fill="#C9B975" mask="url(#mask-2)"></path>
            <path d="M177.260428,23.4798192 L180.449184,23.4798192 C186.61936,23.4798192 187.595671,20.0837287 187.595671,12.5776861 C187.595671,5.0165293 186.052471,1.62306322 179.934783,1.62306322 L177.260428,1.62306322 L175.255317,3.62817388 L175.255317,21.4694596 L177.260428,23.4798192 Z M194.949493,12.5776861 C194.949493,19.7766633 190.165047,24.4561297 181.115804,24.4561297 L163.324384,24.4561297 L163.324384,23.6346642 L166.66536,23.6346642 L168.77545,21.4694596 L168.77545,3.62817388 L166.66536,1.46821828 L163.324384,1.46821828 L163.324384,0.646752791 L179.984649,0.646752791 C189.910471,0.646752791 194.949493,4.86168437 194.949493,12.5776861 Z" id="Fill-24" fill="#C9B975" mask="url(#mask-2)"></path>
            <path d="M204.965073,12.5768988 C204.965073,20.3427659 207.741784,24.0957871 213.707251,24.0957871 C219.672717,24.0957871 222.396938,20.3427659 222.396938,12.5768988 C222.396938,4.8110317 219.672717,1.00552063 213.707251,1.00552063 C207.741784,1.00552063 204.965073,4.8110317 204.965073,12.5768988 M213.707251,0.0292102006 C223.168539,0.0292102006 229.800626,5.48027675 229.800626,12.5768988 C229.800626,19.6735208 223.221028,25.0720976 213.707251,25.0720976 C204.193473,25.0720976 197.611251,19.6735208 197.611251,12.5768988 C197.611251,5.42516245 204.245963,0.0292102006 213.707251,0.0292102006" id="Fill-25" fill="#C9B975" mask="url(#mask-2)"></path>
            <polygon id="Fill-26" fill="#FFFFFB" mask="url(#mask-2)" points="9.20722155 2.33771195 9.32007463 2.59491201 10.6086994 1.55298932 10.178283 1.55298932"></polygon>
            <polygon id="Fill-27" fill="#FFFFFB" mask="url(#mask-2)" points="9.76597555 3.60376612 9.87882864 3.86096618 12.7290252 1.55141463 12.2986088 1.55141463"></polygon>
            <polygon id="Fill-28" fill="#FFFFFB" mask="url(#mask-2)" points="10.3247296 4.86982029 10.4375826 5.12964484 13.7995548 2.4054238 13.6867018 2.14559926"></polygon>
            <polygon id="Fill-29" fill="#FFFFFB" mask="url(#mask-2)" points="10.8821713 6.1361369 10.9950244 6.39596145 14.3622456 3.66911593 14.2493925 3.40929138"></polygon>
            <polygon id="Fill-30" fill="#FFFFFB" mask="url(#mask-2)" points="11.4409253 7.40219107 11.5537784 7.66201562 14.9236241 4.93254561 14.810771 4.67272106"></polygon>
            <polygon id="Fill-31" fill="#FFFFFB" mask="url(#mask-2)" points="11.9983671 8.66824524 12.1112202 8.92806978 15.4863148 6.19597528 15.3734617 5.93352624"></polygon>
            <polygon id="Fill-32" fill="#FFFFFB" mask="url(#mask-2)" points="12.5571211 9.93692389 12.6699742 10.194124 16.0503178 7.45678047 15.9348402 7.19958041"></polygon>
            <polygon id="Fill-33" fill="#FFFFFB" mask="url(#mask-2)" points="13.1158751 11.200616 13.2287282 11.4604406 16.6116963 8.72047259 16.4988432 8.46327254"></polygon>
            <polygon id="Fill-34" fill="#FFFFFB" mask="url(#mask-2)" points="13.6733169 12.4692947 13.7861699 12.7264947 17.174387 9.98390227 17.061534 9.72670221"></polygon>
            <polygon id="Fill-35" fill="#FFFFFB" mask="url(#mask-2)" points="29.2612151 1.55850075 29.2612151 1.91018247 29.7021295 1.55062728 29.2717131 1.55062728"></polygon>
            <polygon id="Fill-36" fill="#FFFFFB" mask="url(#mask-2)" points="14.2318084 13.7353488 14.3446615 13.9925489 17.7355031 11.2447075 17.62265 10.9901319"></polygon>
            <polygon id="Fill-37" fill="#FFFFFB" mask="url(#mask-2)" points="29.2612151 3.27832931 29.2612151 3.62738653 31.8253422 1.55141463 31.3923013 1.55141463"></polygon>
            <polygon id="Fill-38" fill="#FFFFFB" mask="url(#mask-2)" points="4.66947765 23.5488433 7.443564 21.304904 7.27297213 21.0896958 4.35191432 23.4569862 4.27842858 23.5488433"></polygon>
            <polygon id="Fill-39" fill="#FFFFFB" mask="url(#mask-2)" points="14.7905624 15.001403 14.9034155 15.2586031 18.2995061 12.5081371 18.1840285 12.2535616"></polygon>
            <polygon id="Fill-40" fill="#FFFFFB" mask="url(#mask-2)" points="29.2612151 4.99553338 29.2612151 5.34721509 33.9459305 1.55220198 33.515514 1.55220198"></polygon>
            <polygon id="Fill-41" fill="#FFFFFB" mask="url(#mask-2)" points="8.27552746 22.3468267 8.10756007 22.134243 6.35964947 23.5488433 6.79006589 23.5488433"></polygon>
            <polygon id="Fill-42" fill="#FFFFFB" mask="url(#mask-2)" points="15.3480042 16.2674572 15.4608573 16.5246572 18.8595723 13.7715668 18.7467192 13.5143668"></polygon>
            <polygon id="Fill-43" fill="#FFFFFB" mask="url(#mask-2)" points="9.10854071 23.3900617 8.94057332 23.1774779 8.4812875 23.5527801 8.91170393 23.5527801"></polygon>
            <polygon id="Fill-44" fill="#FFFFFB" mask="url(#mask-2)" points="29.2612151 6.71536193 29.2612151 7.06704365 33.520763 3.61321428 33.520763 3.26940604"></polygon>
            <polygon id="Fill-45" fill="#FFFFFB" mask="url(#mask-2)" points="19.4233129 15.034734 19.3104598 14.777534 15.9064957 17.5358734 16.0219733 17.7930734"></polygon>
            <polygon id="Fill-46" fill="#FFFFFB" mask="url(#mask-2)" points="29.2612151 8.43492804 29.2612151 8.78398526 33.520763 5.3301559 33.520763 4.98634766"></polygon>
            <polygon id="Fill-47" fill="#FFFFFB" mask="url(#mask-2)" points="19.9857412 16.2981637 19.8728881 16.0409637 16.4662995 18.8019276 16.5791526 19.0591276"></polygon>
            <polygon id="Fill-48" fill="#FFFFFB" mask="url(#mask-2)" points="29.2612151 10.1521321 29.2612151 10.5038138 33.520763 7.05260895 33.520763 6.70617622"></polygon>
            <polygon id="Fill-49" fill="#FFFFFB" mask="url(#mask-2)" points="20.2088228 17.8361151 20.4082841 17.3269639 17.0226915 20.0695564 17.1381691 20.324132"></polygon>
            <polygon id="Fill-50" fill="#FFFFFB" mask="url(#mask-2)" points="29.2612151 11.8719607 29.2612151 12.2210179 33.520763 8.7724375 33.520763 8.42338028"></polygon>
            <polygon id="Fill-51" fill="#FFFFFB" mask="url(#mask-2)" points="19.2207022 20.3553634 19.422788 19.8435878 17.5803957 21.3342983 17.6932488 21.5914984"></polygon>
            <polygon id="Fill-52" fill="#FFFFFB" mask="url(#mask-2)" points="29.2612151 13.5891647 29.2612151 13.9408464 33.520763 10.4896416 33.520763 10.1432088"></polygon>
            <polygon id="Fill-53" fill="#FFFFFB" mask="url(#mask-2)" points="18.43388 22.3623112 18.1399371 22.6011398 18.2449167 22.842593"></polygon>
            <polygon id="Fill-54" fill="#FFFFFB" mask="url(#mask-2)" points="29.2612151 15.3089933 29.2612151 15.6580505 33.520763 12.2068456 33.520763 11.8604129"></polygon>
            <polygon id="Fill-55" fill="#FFFFFB" mask="url(#mask-2)" points="29.2612151 17.0261973 29.2612151 17.3778791 33.520763 13.9266742 33.520763 13.5802415"></polygon>
            <polygon id="Fill-56" fill="#FFFFFB" mask="url(#mask-2)" points="29.2612151 18.7460259 29.2612151 19.0950831 33.520763 15.6465027 33.520763 15.2974455"></polygon>
            <polygon id="Fill-57" fill="#FFFFFB" mask="url(#mask-2)" points="29.2612151 20.465592 29.2612151 20.8146492 33.520763 17.3634444 33.520763 17.0170116"></polygon>
            <polygon id="Fill-58" fill="#FFFFFB" mask="url(#mask-2)" points="27.5747176 23.5488433 28.005134 23.5488433 33.5191883 19.0845852 33.5191883 18.7329035"></polygon>
            <polygon id="Fill-59" fill="#FFFFFB" mask="url(#mask-2)" points="29.6955683 23.5488433 30.1286092 23.5488433 33.5194508 20.8010019 33.5194508 20.4519447"></polygon>
            <polygon id="Fill-60" fill="#FFFFFB" mask="url(#mask-2)" points="33.6989659 22.0266389 31.8172063 23.5514678 32.2476227 23.5514678 33.8905537 22.2208512 33.7829496 22.1132471"></polygon>
            <polygon id="Fill-61" fill="#FFFFFB" mask="url(#mask-2)" points="34.370573 23.5488433 34.8403568 23.1682922 34.6461445 22.9740799 33.9401566 23.5488433"></polygon>
            <polygon id="Fill-62" fill="#FFFFFB" mask="url(#mask-2)" points="47.3379176 2.19152784 47.5295054 2.38311564 48.5609301 1.55377667 48.1305137 1.55377667"></polygon>
            <polygon id="Fill-63" fill="#FFFFFB" mask="url(#mask-2)" points="48.2874582 3.14238071 48.3976868 3.2526093 48.3976868 3.40220526 50.6809935 1.55193953 50.2532015 1.55193953"></polygon>
            <polygon id="Fill-64" fill="#FFFFFB" mask="url(#mask-2)" points="48.3976868 4.77008965 48.3976868 5.12177136 52.8042062 1.54983994 52.3737898 1.54983994"></polygon>
            <polygon id="Fill-65" fill="#FFFFFB" mask="url(#mask-2)" points="48.3976868 6.48965576 48.3976868 6.84133747 53.4603288 2.73663449 54.1531943 1.82856082"></polygon>
            <polygon id="Fill-66" fill="#FFFFFB" mask="url(#mask-2)" points="48.3976868 8.20948431 48.3976868 8.55854154 53.0141654 4.81864272 53.0141654 4.4695855"></polygon>
            <polygon id="Fill-67" fill="#FFFFFB" mask="url(#mask-2)" points="48.3976868 9.92668838 48.3976868 10.2783701 53.0141654 6.53584679 53.0141654 6.18678957"></polygon>
            <polygon id="Fill-68" fill="#FFFFFB" mask="url(#mask-2)" points="48.3976868 11.6465169 48.3976868 11.9955742 53.0141654 8.25567535 53.0141654 7.90661812"></polygon>
            <polygon id="Fill-69" fill="#FFFFFB" mask="url(#mask-2)" points="48.3976868 13.363721 48.3976868 13.7154027 53.0141654 9.97287941 53.0141654 9.62382219"></polygon>
            <polygon id="Fill-70" fill="#FFFFFB" mask="url(#mask-2)" points="48.3976868 15.0832871 48.3976868 15.4323443 53.0141654 11.6924455 53.0141654 11.3433883"></polygon>
            <polygon id="Fill-71" fill="#FFFFFB" mask="url(#mask-2)" points="65.0852466 1.56374973 65.2453405 1.78420693 65.5314099 1.55062728 65.1009935 1.55062728"></polygon>
            <polygon id="Fill-72" fill="#FFFFFB" mask="url(#mask-2)" points="65.8683945 2.64792672 66.0284884 2.86838391 67.6556725 1.55088973 67.2226315 1.55088973"></polygon>
            <polygon id="Fill-73" fill="#FFFFFB" mask="url(#mask-2)" points="53.0149528 13.409912 53.0149528 13.0608548 48.3984742 16.8007536 48.3984742 17.1524353"></polygon>
            <polygon id="Fill-74" fill="#FFFFFB" mask="url(#mask-2)" points="61.6392907 7.79166544 60.6446088 8.94644122 61.7049029 8.08823286 61.7049029 7.73655115"></polygon>
            <polygon id="Fill-75" fill="#FFFFFB" mask="url(#mask-2)" points="66.6525922 3.7321037 66.8126861 3.9499364 69.166854 2.04193188 69.1537316 1.7086216"></polygon>
            <polygon id="Fill-76" fill="#FFFFFB" mask="url(#mask-2)" points="53.0149528 15.1294781 53.0149528 14.7804209 48.3984742 18.5203197 48.3984742 18.869377"></polygon>
            <polygon id="Fill-77" fill="#FFFFFB" mask="url(#mask-2)" points="67.4354777 4.81601823 67.5955716 5.03647543 69.2332536 3.71110778 69.2201312 3.37254852"></polygon>
            <polygon id="Fill-78" fill="#FFFFFB" mask="url(#mask-2)" points="58.6187647 11.9590937 58.7946055 12.1664285 61.7051654 9.80701162 61.7051654 9.4579544"></polygon>
            <polygon id="Fill-79" fill="#FFFFFB" mask="url(#mask-2)" points="53.0149528 16.8466822 53.0149528 16.497625 48.3984742 20.2375238 48.3984742 20.59183"></polygon>
            <polygon id="Fill-80" fill="#FFFFFB" mask="url(#mask-2)" points="46.8636722 23.5488433 53.0154777 18.5675606 53.0154777 18.2185033 47.8163622 22.4281859 46.6957048 23.5488433"></polygon>
            <polygon id="Fill-81" fill="#FFFFFB" mask="url(#mask-2)" points="59.4801224 12.9792332 59.6559633 13.1865679 61.7056903 11.5252655 61.7056903 11.1762083"></polygon>
            <polygon id="Fill-82" fill="#FFFFFB" mask="url(#mask-2)" points="68.2196754 5.90019522 68.3797694 6.12065241 69.3009655 5.37267265 69.2852185 5.03673788"></polygon>
            <polygon id="Fill-83" fill="#FFFFFB" mask="url(#mask-2)" points="69.0041356 6.9843722 69.1642295 7.2022049 69.3663153 7.0394865 69.3531928 6.70092724"></polygon>
            <polygon id="Fill-84" fill="#FFFFFB" mask="url(#mask-2)" points="61.7059527 13.2432569 61.7059527 12.8941997 60.3412177 13.9991101 60.5170586 14.2064449"></polygon>
            <polygon id="Fill-85" fill="#FFFFFB" mask="url(#mask-2)" points="53.0149528 20.2863393 53.0149528 19.9372821 48.5533191 23.5512054 48.98636 23.5512054"></polygon>
            <polygon id="Fill-86" fill="#FFFFFB" mask="url(#mask-2)" points="61.2049375 15.0192495 61.3781539 15.2265843 61.7062152 14.9641352 61.7062152 14.615078"></polygon>
            <polygon id="Fill-87" fill="#FFFFFB" mask="url(#mask-2)" points="53.1212446 21.9164103 53.0136405 21.7799368 53.0136405 21.6539613 50.6752196 23.5488433 51.105636 23.5488433"></polygon>
            <polygon id="Fill-88" fill="#FFFFFB" mask="url(#mask-2)" points="52.7971201 23.5488433 53.230161 23.5488433 53.9361489 22.9767044 53.770806 22.7614962"></polygon>
            <polygon id="Fill-89" fill="#FFFFFB" mask="url(#mask-2)" points="66.2001301 21.2857453 65.3445462 22.3250435 69.4728696 18.9840672 69.4728696 18.63501"></polygon>
            <polygon id="Fill-90" fill="#FFFFFB" mask="url(#mask-2)" points="65.5261609 23.5488433 65.9565774 23.5488433 69.47077 20.7012713 69.47077 20.352214"></polygon>
            <polygon id="Fill-91" fill="#FFFFFB" mask="url(#mask-2)" points="67.6470116 23.5488433 68.0800526 23.5488433 69.4710325 22.4203125 69.4710325 22.0738797"></polygon>
            <polygon id="Fill-92" fill="#FFFFFB" mask="url(#mask-2)" points="79.7724197 2.22485887 79.9640075 2.41644666 81.0321751 1.55298932 80.6017587 1.55298932"></polygon>
            <polygon id="Fill-93" fill="#FFFFFB" mask="url(#mask-2)" points="80.7219603 3.17334969 80.800695 3.25208441 80.800695 3.45417017 83.1548629 1.55141463 82.7244465 1.55141463"></polygon>
            <polygon id="Fill-94" fill="#FFFFFB" mask="url(#mask-2)" points="80.8014824 4.82887824 80.8014824 5.17793546 85.2762385 1.55088973 84.8458221 1.55088973"></polygon>
            <polygon id="Fill-95" fill="#FFFFFB" mask="url(#mask-2)" points="80.8014824 6.5460823 80.8014824 6.89776401 85.7512713 2.88229371 86.4441367 1.97684452"></polygon>
            <polygon id="Fill-96" fill="#FFFFFB" mask="url(#mask-2)" points="80.8014824 8.26591086 80.8014824 8.61496808 85.417961 4.87506927 85.417961 4.52601204"></polygon>
            <polygon id="Fill-97" fill="#FFFFFB" mask="url(#mask-2)" points="80.8014824 9.98311492 80.8014824 10.3347966 85.417961 6.59227333 85.417961 6.24321611"></polygon>
            <polygon id="Fill-98" fill="#FFFFFB" mask="url(#mask-2)" points="80.8014824 11.7029435 80.8014824 12.0520007 85.417961 8.31210189 85.417961 7.96304467"></polygon>
            <polygon id="Fill-99" fill="#FFFFFB" mask="url(#mask-2)" points="80.8014824 13.4201475 80.8014824 13.7692048 85.417961 10.029306 85.417961 9.68024873"></polygon>
            <polygon id="Fill-100" fill="#FFFFFB" mask="url(#mask-2)" points="80.8014824 15.1397137 80.8014824 15.4887709 85.417961 11.7488721 85.417961 11.4155618 85.417961 11.3998148"></polygon>
            <path d="M96.8725493,2.11987925 C96.9460351,2.17499355 97.0142718,2.23798132 97.0851331,2.29572011 L97.6257781,1.85743021 C97.5050515,1.84168327 97.3764515,1.82856082 97.2531004,1.81018938 L96.8725493,2.11987925 Z" id="Fill-101" fill="#FFFFFB" mask="url(#mask-2)"></path>
            <polygon id="Fill-102" fill="#FFFFFB" mask="url(#mask-2)" points="85.4187483 13.4660761 85.4187483 13.1170189 80.8022697 16.8569177 80.8022697 17.2085994"></polygon>
            <path d="M97.8517467,3.04501211 C97.9094855,3.11587335 97.9619753,3.18935909 98.0144651,3.26284482 L99.3267103,2.19730172 C99.2191062,2.17105681 99.0983796,2.15006089 98.988151,2.12119149 L97.8517467,3.04501211 Z" id="Fill-103" fill="#FFFFFB" mask="url(#mask-2)"></path>
            <polygon id="Fill-104" fill="#FFFFFB" mask="url(#mask-2)" points="85.4187483 15.1859047 85.4187483 14.8368475 80.8022697 18.5767463 80.8022697 18.9258035"></polygon>
            <path d="M98.5616714,4.18824013 C98.6010387,4.27222382 98.6377816,4.35883201 98.6718999,4.45068917 L100.855476,2.68178264 C100.75837,2.64241529 100.645517,2.61354589 100.548411,2.58205201 L98.5616714,4.18824013 Z" id="Fill-105" fill="#FFFFFB" mask="url(#mask-2)"></path>
            <polygon id="Fill-106" fill="#FFFFFB" mask="url(#mask-2)" points="85.4187483 16.9031088 85.4187483 16.5540515 80.8022697 20.2939503 80.8022697 20.6456321"></polygon>
            <path d="M98.972929,5.57475841 C98.9886759,5.67973802 99.0044229,5.78209315 99.0175453,5.88707276 L102.153811,3.34656606 C102.072452,3.29670074 101.996342,3.24421094 101.912358,3.19434562 L98.972929,5.57475841 Z" id="Fill-107" fill="#FFFFFB" mask="url(#mask-2)"></path>
            <polygon id="Fill-108" fill="#FFFFFB" mask="url(#mask-2)" points="79.3367543 23.5488433 85.4176986 18.6226749 85.4176986 18.2709931 79.9246402 22.7273778 79.1005502 23.5488433"></polygon>
            <path d="M92.5938426,12.4614212 C92.6725774,12.513911 92.7539366,12.5637763 92.8274223,12.6215151 L93.4782959,12.0939925 C93.3155775,12.1254864 93.1292387,12.1412334 92.9560223,12.1674783 L92.5938426,12.4614212 Z" id="Fill-109" fill="#FFFFFB" mask="url(#mask-2)"></path>
            <path d="M99.0075723,7.26388043 C98.9918253,7.39772944 98.9655804,7.53420294 98.936711,7.67067644 L103.19101,4.22734504 C103.130647,4.1564838 103.080781,4.08562256 103.012545,4.02263479 L99.0075723,7.26388043 Z" id="Fill-110" fill="#FFFFFB" mask="url(#mask-2)"></path>
            <path d="M97.7402059,10.0088349 C97.553867,10.2135452 97.3491568,10.4130065 97.1077037,10.6045942 C97.2520506,10.5835983 97.3806507,10.5573534 97.5223732,10.5363575 L103.899885,5.36873591 C103.868391,5.28212773 103.815901,5.20076853 103.779158,5.11940932 L97.7402059,10.0088349 Z" id="Fill-111" fill="#FFFFFB" mask="url(#mask-2)"></path>
            <polygon id="Fill-112" fill="#FFFFFB" mask="url(#mask-2)" points="85.4187483 20.3401414 85.4187483 19.9910841 81.0253514 23.5525176 81.4583923 23.5525176"></polygon>
            <path d="M93.789298,13.5584582 L93.7919225,13.5558337 C93.789298,13.5532092 93.784049,13.5505847 93.7814245,13.5453357 C93.784049,13.5505847 93.7866735,13.5558337 93.789298,13.5584582" id="Fill-113" fill="#FFFFFB" mask="url(#mask-2)"></path>
            <path d="M94.9529971,14.3350449 C94.8637644,14.2904286 94.7745317,14.2510612 94.6879235,14.1985714 L94.3861071,14.4452735 C94.428099,14.5240082 94.4648418,14.6158654 94.5094582,14.6972246 L94.9529971,14.3350449 Z" id="Fill-114" fill="#FFFFFB" mask="url(#mask-2)"></path>
            <path d="M99.7699867,10.083108 C100.003566,10.0253692 100.224024,9.95975696 100.431358,9.89939368 L104.034784,6.97571138 C104.058404,6.84973584 104.071526,6.72113581 104.0794,6.59253578 L99.7699867,10.083108 Z" id="Fill-115" fill="#FFFFFB" mask="url(#mask-2)"></path>
            <polygon id="Fill-116" fill="#FFFFFB" mask="url(#mask-2)" points="85.5520725 21.9521034 85.4182235 21.778887 85.4182235 21.7106503 83.1480393 23.5477935 83.5810802 23.5477935"></polygon>
            <path d="M94.9747803,15.6882321 C95.0088987,15.7722158 95.0403926,15.8666975 95.0771355,15.9559302 L96.4261235,14.8615177 C96.3185194,14.8326483 96.1872949,14.8195258 96.0823153,14.7906564 L94.9747803,15.6882321 Z" id="Fill-117" fill="#FFFFFB" mask="url(#mask-2)"></path>
            <polygon id="Fill-118" fill="#FFFFFB" mask="url(#mask-2)" points="86.360678 23.0158093 86.1979595 22.7979766 85.2688899 23.5512054 85.7019309 23.5512054"></polygon>
            <path d="M95.4553245,17.0159618 C95.4841939,17.107819 95.5104388,17.2023007 95.5419327,17.2967823 L98.197917,15.1420757 C98.069317,15.1315777 97.92497,15.1289532 97.8016189,15.1158308 L95.4553245,17.0159618 Z" id="Fill-119" fill="#FFFFFB" mask="url(#mask-2)"></path>
            <path d="M95.8692067,18.3998556 L95.9479414,18.6833006 L99.5618646,15.7596183 C99.5382442,15.6625121 99.5146238,15.565406 99.4910034,15.4656754 L95.8692067,18.3998556 Z" id="Fill-120" fill="#FFFFFB" mask="url(#mask-2)"></path>
            <path d="M96.258681,19.8044829 L96.3374157,20.0853034 L99.9093472,17.1957394 C99.8857268,17.0986333 99.8621063,17.0015271 99.8384859,16.904421 L96.258681,19.8044829 Z" id="Fill-121" fill="#FFFFFB" mask="url(#mask-2)"></path>
            <path d="M96.6471056,21.2064857 L96.7258403,21.4899306 L100.2794,18.6161136 C100.253155,18.5242565 100.226911,18.4219013 100.200666,18.3274197 L96.6471056,21.2064857 Z" id="Fill-122" fill="#FFFFFB" mask="url(#mask-2)"></path>
            <path d="M97.03658,22.6108505 L97.1153147,22.8969199 L100.676748,20.0099805 C100.647879,19.9181233 100.621634,19.8236417 100.592764,19.72916 L97.03658,22.6108505 Z" id="Fill-123" fill="#FFFFFB" mask="url(#mask-2)"></path>
            <path d="M97.9976684,23.5488433 L98.4307093,23.5488433 L101.107689,21.3810143 C101.076196,21.2917816 101.047326,21.1972999 101.015832,21.1028183 L97.9976684,23.5488433 Z" id="Fill-124" fill="#FFFFFB" mask="url(#mask-2)"></path>
            <path d="M100.119831,23.5488433 L100.550248,23.5488433 L101.584297,22.7142554 C101.550179,22.6250227 101.51606,22.5331655 101.484566,22.4439329 L100.119831,23.5488433 Z" id="Fill-125" fill="#FFFFFB" mask="url(#mask-2)"></path>
            <polygon id="Fill-126" fill="#FFFFFB" mask="url(#mask-2)" points="102.249868 23.5438568 102.241994 23.5491058 102.257741 23.5491058"></polygon>
            <path d="M111.118808,4.80578272 C110.735633,5.18895832 110.378702,5.58788086 110.055889,6.01567279 L114.549017,2.37550461 C114.097605,2.59333732 113.659315,2.82429247 113.244645,3.08411702 L111.118808,4.80578272 Z" id="Fill-127" fill="#FFFFFB" mask="url(#mask-2)"></path>
            <path d="M108.631579,8.53754561 C108.563342,8.71076198 108.481983,8.88135386 108.418995,9.05719471 L114.927731,3.78459351 C115.048458,3.56413631 115.16656,3.34105463 115.300409,3.13634438 L108.631579,8.53754561 Z" id="Fill-128" fill="#FFFFFB" mask="url(#mask-2)"></path>
            <path d="M107.969157,10.7956572 C107.948161,10.9163837 107.95341,11.0476082 107.937663,11.1709593 L113.966118,6.28678265 C114.005485,6.13981119 114.039603,5.98496626 114.08422,5.84324377 L107.969157,10.7956572 Z" id="Fill-129" fill="#FFFFFB" mask="url(#mask-2)"></path>
            <path d="M107.812738,12.6383119 C107.812738,12.6724302 107.804864,12.6986751 107.804864,12.730169 C107.804864,12.8167772 107.812738,12.9033854 107.815362,12.9873691 L113.549874,8.34202108 C113.568245,8.20554758 113.59449,8.07432306 113.615486,7.93522507 L107.812738,12.6383119 Z" id="Fill-130" fill="#FFFFFB" mask="url(#mask-2)"></path>
            <path d="M107.919029,14.2710073 C107.932152,14.3759869 107.945274,14.4835911 107.961021,14.5859462 L113.356974,10.2161697 C113.367471,10.0823207 113.383218,9.96421859 113.393716,9.84086754 L107.919029,14.2710073 Z" id="Fill-131" fill="#FFFFFB" mask="url(#mask-2)"></path>
            <path d="M108.216384,15.7499077 C108.242629,15.8443893 108.276747,15.933622 108.305617,16.0254792 L113.302647,11.978515 C113.302647,11.8577884 113.31052,11.7449353 113.313145,11.6242088 L108.216384,15.7499077 Z" id="Fill-132" fill="#FFFFFB" mask="url(#mask-2)"></path>
            <path d="M108.698241,17.0773749 C108.734983,17.1639831 108.769102,17.2505913 108.808469,17.339824 L113.325217,13.6786599 C113.322593,13.5658068 113.319968,13.4503292 113.317344,13.3348516 L108.698241,17.0773749 Z" id="Fill-133" fill="#FFFFFB" mask="url(#mask-2)"></path>
            <path d="M109.314471,18.2975005 C109.361712,18.3762352 109.414202,18.4523454 109.461442,18.5284557 L113.4113,15.3292019 C113.403427,15.2189733 113.395554,15.1087447 113.38768,14.9985161 L109.314471,18.2975005 Z" id="Fill-134" fill="#FFFFFB" mask="url(#mask-2)"></path>
            <path d="M129.453236,3.70113471 C129.510974,3.76937146 129.573962,3.83760821 129.631701,3.90584496 L131.602693,2.3101548 L131.602693,1.95847309 L129.453236,3.70113471 Z" id="Fill-135" fill="#FFFFFB" mask="url(#mask-2)"></path>
            <path d="M113.533339,16.598143 L110.07951,19.3958497 C110.134624,19.4693355 110.192363,19.5375722 110.250102,19.605809 L113.58058,16.9104573 C113.564833,16.8054777 113.546462,16.7057471 113.533339,16.598143" id="Fill-136" fill="#FFFFFB" mask="url(#mask-2)"></path>
            <path d="M130.26814,4.75985414 C130.32063,4.83333987 130.375744,4.9068256 130.425609,4.98031133 L131.601381,4.03024581 L131.601381,3.6785641 L130.26814,4.75985414 Z" id="Fill-137" fill="#FFFFFB" mask="url(#mask-2)"></path>
            <path d="M111.156076,20.5913051 L113.846179,18.4103536 C113.825183,18.3106229 113.796313,18.2240148 113.775317,18.1242841 L110.967113,20.3970928 C111.0301,20.4600806 111.090464,20.5309418 111.156076,20.5913051" id="Fill-138" fill="#FFFFFB" mask="url(#mask-2)"></path>
            <path d="M130.983313,5.90019522 C131.02793,5.97892993 131.072546,6.06028913 131.114538,6.14164833 L131.602693,5.74535028 L131.602693,5.39891755 L130.983313,5.90019522 Z" id="Fill-139" fill="#FFFFFB" mask="url(#mask-2)"></path>
            <path d="M114.244576,19.8094694 C114.213082,19.7202367 114.168466,19.641502 114.136972,19.5443959 L111.977016,21.294931 C112.053127,21.3526698 112.129237,21.4051596 112.205347,21.4602739 L114.244576,19.8094694 Z" id="Fill-140" fill="#FFFFFB" mask="url(#mask-2)"></path>
            <path d="M113.124444,22.0854275 C113.205803,22.1352928 113.287162,22.1877826 113.371146,22.2376479 L114.796244,21.0802477 C114.751628,20.9988885 114.699138,20.9280272 114.657146,20.8440435 L113.124444,22.0854275 Z" id="Fill-141" fill="#FFFFFB" mask="url(#mask-2)"></path>
            <path d="M114.393122,22.7775056 C114.484979,22.8194974 114.582086,22.8588648 114.673943,22.8982322 L115.534776,22.2027422 C115.477037,22.131881 115.414049,22.0662687 115.358935,21.9954075 L114.393122,22.7775056 Z" id="Fill-142" fill="#FFFFFB" mask="url(#mask-2)"></path>
            <path d="M116.269371,22.9748673 L115.817958,23.3422959 C115.920313,23.3737898 116.022668,23.4079082 116.125024,23.4446511 L116.489828,23.1454592 C116.416342,23.0877204 116.340232,23.0352306 116.269371,22.9748673" id="Fill-143" fill="#FFFFFB" mask="url(#mask-2)"></path>
            <path d="M117.483985,23.8078805 C117.460364,23.7947581 117.441993,23.7763866 117.418372,23.7606397 L117.392127,23.7842601 C117.423621,23.7921336 117.452491,23.8026316 117.483985,23.8078805" id="Fill-144" fill="#FFFFFB" mask="url(#mask-2)"></path>
            <polygon id="Fill-145" fill="#FFFFFB" mask="url(#mask-2)" points="147.28901 1.91989308 146.921581 2.56814221 148.493651 1.29526437 148.063235 1.29526437"></polygon>
            <polygon id="Fill-146" fill="#FFFFFB" mask="url(#mask-2)" points="145.473125 5.1107485 145.281537 5.44668328 145.488872 5.44668328 149.520089 2.18181722 149.401987 1.92724165"></polygon>
            <polygon id="Fill-147" fill="#FFFFFB" mask="url(#mask-2)" points="146.659657 5.86686419 146.709522 5.97709278 146.775135 6.12406425 150.095115 3.43396159 149.977013 3.18201051"></polygon>
            <polygon id="Fill-148" fill="#FFFFFB" mask="url(#mask-2)" points="147.231271 7.12268284 147.346749 7.3798829 150.669353 4.68715575 150.551251 4.43258019"></polygon>
            <polygon id="Fill-149" fill="#FFFFFB" mask="url(#mask-2)" points="147.802885 8.37876395 147.918363 8.635964 151.243592 5.94061237 151.128114 5.68866129"></polygon>
            <polygon id="Fill-150" fill="#FFFFFB" mask="url(#mask-2)" points="148.374499 9.6345826 148.489977 9.88915817 151.81783 7.19380653 151.702353 6.93923096"></polygon>
            <polygon id="Fill-151" fill="#FFFFFB" mask="url(#mask-2)" points="148.945851 10.8904013 149.061328 11.1449768 152.394431 8.4470007 152.276329 8.19242513"></polygon>
            <path d="M134.909814,22.6108505 L137.11701,20.8235725 L136.998908,20.5689969 L136.117079,21.2828583 C135.754899,21.7500176 135.345479,22.196181 134.909814,22.6108505" id="Fill-152" fill="#FFFFFB" mask="url(#mask-2)"></path>
            <polygon id="Fill-153" fill="#FFFFFB" mask="url(#mask-2)" points="149.517465 12.1462199 149.632942 12.4007955 152.968669 9.69757037 152.853192 9.44561929"></polygon>
            <polygon id="Fill-154" fill="#FFFFFB" mask="url(#mask-2)" points="137.691773 22.075192 137.576296 21.8206164 135.439961 23.5501556 135.870377 23.5501556"></polygon>
            <polygon id="Fill-155" fill="#FFFFFB" mask="url(#mask-2)" points="150.089079 13.4020386 150.204556 13.6566141 153.542908 10.94814 153.42743 10.6988135"></polygon>
            <polygon id="Fill-156" fill="#FFFFFB" mask="url(#mask-2)" points="138.268636 23.3260241 138.153159 23.0714485 137.562648 23.5491058 137.993065 23.5491058"></polygon>
            <polygon id="Fill-157" fill="#FFFFFB" mask="url(#mask-2)" points="150.660693 14.6578572 150.77617 14.9124328 154.119771 12.2013342 154.001669 11.9493831"></polygon>
            <polygon id="Fill-158" fill="#FFFFFB" mask="url(#mask-2)" points="151.230732 15.9139383 151.34621 16.1685139 154.692435 13.4547908 154.576957 13.2028397"></polygon>
            <polygon id="Fill-159" fill="#FFFFFB" mask="url(#mask-2)" points="151.80497 17.1671325 151.920448 17.4243325 155.269298 14.707985 155.151196 14.4560339"></polygon>
            <polygon id="Fill-160" fill="#FFFFFB" mask="url(#mask-2)" points="152.37396 18.4255756 152.489438 18.6827757 155.843536 15.9638036 155.728059 15.7092281"></polygon>
            <polygon id="Fill-161" fill="#FFFFFB" mask="url(#mask-2)" points="152.941637 19.6840188 153.057115 19.9385943 156.419087 17.2169978 156.300985 16.9624222"></polygon>
            <polygon id="Fill-162" fill="#FFFFFB" mask="url(#mask-2)" points="153.510627 20.9424619 153.626104 21.199662 156.993326 18.470192 156.877848 18.2156164"></polygon>
            <polygon id="Fill-163" fill="#FFFFFB" mask="url(#mask-2)" points="154.078304 22.2009051 154.091426 22.2323989 153.729247 22.6680644 153.314577 23.169342 157.568876 19.7233861 157.453399 19.4661861"></polygon>
            <polygon id="Fill-164" fill="#FFFFFB" mask="url(#mask-2)" points="154.533128 23.5488433 154.966169 23.5488433 158.141803 20.9768427 158.026325 20.7222672"></polygon>
            <polygon id="Fill-165" fill="#FFFFFB" mask="url(#mask-2)" points="158.601876 21.9725744 156.654504 23.5498931 157.08492 23.5498931 158.717353 22.22715 158.641243 22.0565581"></polygon>
            <polygon id="Fill-166" fill="#FFFFFB" mask="url(#mask-2)" points="158.776142 23.5488433 159.209183 23.5488433 159.846934 23.0344432 159.61073 22.8743493"></polygon>
            <polygon id="Fill-167" fill="#FFFFFB" mask="url(#mask-2)" points="168.095182 1.63539832 168.284146 1.82961061 168.627954 1.55141463 168.200162 1.55141463"></polygon>
            <polygon id="Fill-168" fill="#FFFFFB" mask="url(#mask-2)" points="169.032125 2.59412466 169.221089 2.78833695 170.751167 1.55482647 170.32075 1.55482647"></polygon>
            <polygon id="Fill-169" fill="#FFFFFB" mask="url(#mask-2)" points="169.680375 3.78826779 169.680375 4.13732502 172.871755 1.54957749 172.441338 1.54957749"></polygon>
            <polygon id="Fill-170" fill="#FFFFFB" mask="url(#mask-2)" points="169.680375 5.50809635 169.680375 5.85715357 174.992343 1.55298932 174.561927 1.55298932"></polygon>
            <polygon id="Fill-171" fill="#FFFFFB" mask="url(#mask-2)" points="174.348818 3.44235996 169.67985 7.22425062 169.67985 7.57330784 174.348818 3.79404167 174.348818 3.62607429"></polygon>
            <polygon id="Fill-172" fill="#FFFFFB" mask="url(#mask-2)" points="169.680375 8.94250448 169.680375 9.2941862 174.349343 5.50967104 174.349343 5.16323831"></polygon>
            <polygon id="Fill-173" fill="#FFFFFB" mask="url(#mask-2)" points="169.680375 10.662333 169.680375 11.0140148 174.349343 7.2294996 174.349343 6.88306687"></polygon>
            <polygon id="Fill-174" fill="#FFFFFB" mask="url(#mask-2)" points="169.680375 12.3818991 169.680375 12.7309564 174.349343 8.94644122 174.349343 8.60000849"></polygon>
            <polygon id="Fill-175" fill="#FFFFFB" mask="url(#mask-2)" points="169.680375 14.0991032 169.680375 14.4507849 174.349343 10.6662698 174.349343 10.319837"></polygon>
            <path d="M185.904187,2.67600876 C185.969799,2.73637204 186.038036,2.79935981 186.101024,2.86497207 L186.646918,2.42405769 C186.541938,2.3925638 186.429085,2.3663189 186.321481,2.3374495 L185.904187,2.67600876 Z" id="Fill-176" fill="#FFFFFB" mask="url(#mask-2)"></path>
            <polygon id="Fill-177" fill="#FFFFFB" mask="url(#mask-2)" points="174.348818 12.0359913 169.67985 15.8152575 169.67985 16.1695637 174.348818 12.3850485"></polygon>
            <polygon id="Fill-178" fill="#FFFFFB" mask="url(#mask-2)" points="174.348818 14.1043522 174.348818 13.755295 169.67985 17.5398101 169.67985 17.8862429"></polygon>
            <path d="M186.761345,3.69877267 C186.811211,3.77488289 186.850578,3.86149108 186.897819,3.94022579 L188.105084,2.96129087 C188.010603,2.91929902 187.918746,2.87993167 187.824264,2.83793982 L186.761345,3.69877267 Z" id="Fill-179" fill="#FFFFFB" mask="url(#mask-2)"></path>
            <path d="M187.400934,4.90078927 C187.437677,4.98739746 187.461297,5.0845036 187.49804,5.17373627 L189.419167,3.61478898 C189.335183,3.56492366 189.264322,3.50718487 189.180338,3.45994405 L187.400934,4.90078927 Z" id="Fill-180" fill="#FFFFFB" mask="url(#mask-2)"></path>
            <polygon id="Fill-181" fill="#FFFFFB" mask="url(#mask-2)" points="174.348818 15.8215563 174.348818 15.472499 169.67985 19.2570142 169.67985 19.6034469"></polygon>
            <path d="M187.859695,6.2463655 C187.88594,6.34084715 187.901686,6.44582677 187.925307,6.54030842 L190.589165,4.38560181 C190.515679,4.33048751 190.431695,4.2779977 190.358209,4.2228834 L187.859695,6.2463655 Z" id="Fill-182" fill="#FFFFFB" mask="url(#mask-2)"></path>
            <polygon id="Fill-183" fill="#FFFFFB" mask="url(#mask-2)" points="174.348818 17.5413848 174.348818 17.1923276 169.67985 20.9768427 169.67985 21.3232755"></polygon>
            <path d="M188.172271,7.71240583 C188.188018,7.81476096 188.198516,7.92498956 188.214263,8.02734468 L191.55524,5.32149508 C191.494876,5.25325833 191.421391,5.19551954 191.358403,5.13253177 L188.172271,7.71240583 Z" id="Fill-184" fill="#FFFFFB" mask="url(#mask-2)"></path>
            <polygon id="Fill-185" fill="#FFFFFB" mask="url(#mask-2)" points="174.348818 19.2609509 174.348818 18.9118937 168.62218 23.5493682 169.052596 23.5493682"></polygon>
            <polygon id="Fill-186" fill="#FFFFFB" mask="url(#mask-2)" points="174.348818 20.978155 174.348818 20.6290978 170.742768 23.5475311 171.175809 23.5475311"></polygon>
            <path d="M188.368321,9.27319027 C188.378819,9.38079438 188.381443,9.49364747 188.389317,9.60387606 L192.36542,6.37837737 C192.315554,6.30751612 192.265689,6.2314059 192.213199,6.15792017 L188.368321,9.27319027 Z" id="Fill-187" fill="#FFFFFB" mask="url(#mask-2)"></path>
            <polygon id="Fill-188" fill="#FFFFFB" mask="url(#mask-2)" points="174.819127 22.3161202 174.624914 22.1245324 172.863881 23.5522552 173.296922 23.5522552"></polygon>
            <path d="M188.470938,10.9082478 C188.473563,11.0184764 188.473563,11.1392029 188.476187,11.252056 L193.027054,7.56464702 C192.987686,7.48066333 192.958817,7.38880617 192.916825,7.30482248 L188.470938,10.9082478 Z" id="Fill-189" fill="#FFFFFB" mask="url(#mask-2)"></path>
            <polygon id="Fill-190" fill="#FFFFFB" mask="url(#mask-2)" points="175.767618 23.2669731 175.57603 23.0753853 174.988144 23.5477935 175.41856 23.5477935"></polygon>
            <path d="M188.501645,12.5999943 C188.501645,12.7207209 188.49902,12.8335739 188.49902,12.9543005 L193.535418,8.87059345 C193.509173,8.77611179 193.490801,8.67375667 193.461932,8.58714848 L188.501645,12.5999943 Z" id="Fill-191" fill="#FFFFFB" mask="url(#mask-2)"></path>
            <path d="M188.482486,14.3350449 C188.479862,14.4583959 188.471988,14.576498 188.466739,14.6998491 L193.865316,10.3248236 C193.849569,10.2224684 193.818075,10.1279868 193.797079,10.0282562 L188.482486,14.3350449 Z" id="Fill-192" fill="#FFFFFB" mask="url(#mask-2)"></path>
            <path d="M188.395353,16.1238976 C188.384855,16.2551221 188.369108,16.3784731 188.35861,16.5070731 L194.001265,11.9299619 C193.996016,11.8197333 193.985518,11.7121292 193.977644,11.5992761 L188.395353,16.1238976 Z" id="Fill-193" fill="#FFFFFB" mask="url(#mask-2)"></path>
            <path d="M188.16466,18.0308523 C188.14104,18.1673258 188.11742,18.3037993 188.091175,18.4376483 L193.967409,13.6794472 C193.975282,13.5560961 193.98578,13.4353696 193.993654,13.3093941 L188.16466,18.0308523 Z" id="Fill-194" fill="#FFFFFB" mask="url(#mask-2)"></path>
            <path d="M187.623753,20.1863462 C187.550267,20.3858075 187.447912,20.5642729 187.358679,20.7479872 L193.660081,15.6486023 C193.694199,15.5068799 193.728318,15.3625329 193.757187,15.2155614 L187.623753,20.1863462 Z" id="Fill-195" fill="#FFFFFB" mask="url(#mask-2)"></path>
            <path d="M186.512806,22.8055876 C186.735888,22.7425999 186.972092,22.6848611 187.184676,22.6113754 L192.766967,18.0867539 C192.858824,17.921411 192.919187,17.7245742 193.000546,17.5487334 L186.512806,22.8055876 Z" id="Fill-196" fill="#FFFFFB" mask="url(#mask-2)"></path>
            <path d="M201.371621,5.53119187 C201.04356,5.8776246 200.741743,6.23717978 200.466172,6.61248191 L205.250618,2.73873409 C204.77821,2.96181577 204.326797,3.21639134 203.899005,3.48408936 L201.371621,5.53119187 Z" id="Fill-197" fill="#FFFFFB" mask="url(#mask-2)"></path>
            <path d="M199.150777,9.0474841 C199.093038,9.20757801 199.040549,9.36767193 198.988059,9.53039033 L206.152918,3.72764207 C206.381248,3.38645831 206.62795,3.07151947 206.893024,2.77495205 L199.150777,9.0474841 Z" id="Fill-198" fill="#FFFFFB" mask="url(#mask-2)"></path>
            <path d="M198.619055,11.1979915 C198.600684,11.3318405 198.577064,11.4604406 198.563941,11.5916651 L204.875841,6.4791578 C204.923081,6.32693735 204.965073,6.16159446 205.017563,6.01199851 L198.619055,11.1979915 Z" id="Fill-199" fill="#FFFFFB" mask="url(#mask-2)"></path>
            <path d="M198.535859,12.9842197 C198.538484,13.0944483 198.541108,13.2073014 198.551606,13.3201545 L204.367477,8.6091942 C204.391097,8.46484723 204.422591,8.3362472 204.448836,8.19452472 L198.535859,12.9842197 Z" id="Fill-200" fill="#FFFFFB" mask="url(#mask-2)"></path>
            <path d="M198.7138,14.5581266 C198.732171,14.6578572 198.76104,14.7549634 198.782036,14.8520695 L204.135997,10.5137869 C204.146495,10.3825624 204.167491,10.2618358 204.177989,10.1306113 L198.7138,14.5581266 Z" id="Fill-201" fill="#FFFFFB" mask="url(#mask-2)"></path>
            <path d="M199.107211,15.9598669 C199.138705,16.0490996 199.164949,16.1435812 199.201692,16.2328139 L204.070122,12.2908293 C204.070122,12.1674783 204.077995,12.0520007 204.08062,11.9286497 L199.107211,15.9598669 Z" id="Fill-202" fill="#FFFFFB" mask="url(#mask-2)"></path>
            <path d="M199.66334,17.2261835 C199.705332,17.3075427 199.752573,17.3889019 199.797189,17.4676366 L204.103978,13.9796889 C204.098729,13.8694603 204.096104,13.7513582 204.090855,13.6385051 L199.66334,17.2261835 Z" id="Fill-203" fill="#FFFFFB" mask="url(#mask-2)"></path>
            <path d="M220.153262,2.34532297 C220.218874,2.40831074 220.289735,2.46604953 220.352723,2.53166179 L220.812009,2.16160865 C220.714903,2.12486578 220.620421,2.08287394 220.52069,2.05138005 L220.153262,2.34532297 Z" id="Fill-204" fill="#FFFFFB" mask="url(#mask-2)"></path>
            <path d="M204.200034,15.2704133 L200.370903,18.3751854 C200.423393,18.4486711 200.468009,18.5247814 200.523123,18.5982671 L204.234153,15.5932256 C204.22103,15.488246 204.210532,15.3806419 204.200034,15.2704133" id="Fill-205" fill="#FFFFFB" mask="url(#mask-2)"></path>
            <path d="M221.03614,3.3499779 C221.091254,3.42083914 221.138495,3.49957385 221.190985,3.57305958 L222.198789,2.75159409 C222.109557,2.71222673 222.0177,2.67023489 221.925842,2.62824304 L221.03614,3.3499779 Z" id="Fill-206" fill="#FFFFFB" mask="url(#mask-2)"></path>
            <path d="M204.46642,17.1209415 C204.448049,17.0212108 204.427053,16.9241047 204.408681,16.8217495 L201.204178,19.4147461 C201.264542,19.4803583 201.330154,19.5485951 201.393142,19.6115828 L204.46642,17.1209415 Z" id="Fill-207" fill="#FFFFFB" mask="url(#mask-2)"></path>
            <path d="M221.746065,4.49320591 C221.788057,4.57456512 221.8248,4.6611733 221.864167,4.74778148 L223.465106,3.45128323 C223.383747,3.39879342 223.302388,3.34630361 223.221028,3.29906278 L221.746065,4.49320591 Z" id="Fill-208" fill="#FFFFFB" mask="url(#mask-2)"></path>
            <path d="M204.816265,18.5588997 C204.787395,18.4644181 204.758526,18.3725609 204.732281,18.2780793 L202.168154,20.3540512 C202.239015,20.4144145 202.302003,20.4747777 202.375489,20.535141 L204.816265,18.5588997 Z" id="Fill-209" fill="#FFFFFB" mask="url(#mask-2)"></path>
            <path d="M222.302194,5.76188457 C222.333688,5.85111725 222.359933,5.9455989 222.391427,6.03483157 L224.609121,4.24230463 C224.535636,4.18194135 224.46215,4.12945155 224.38604,4.06908827 L222.302194,5.76188457 Z" id="Fill-210" fill="#FFFFFB" mask="url(#mask-2)"></path>
            <path d="M205.294447,19.8889915 C205.257704,19.8023833 205.218337,19.7210241 205.184218,19.6291669 L203.239471,21.2038612 C203.318205,21.256351 203.399565,21.3062163 203.480924,21.3613306 L205.294447,19.8889915 Z" id="Fill-211" fill="#FFFFFB" mask="url(#mask-2)"></path>
            <path d="M205.915926,21.1038681 C205.868685,21.0277579 205.81882,20.9490231 205.774204,20.8702884 L204.443587,21.9463295 C204.527571,21.9935703 204.614179,22.0408111 204.700787,22.088052 L205.915926,21.1038681 Z" id="Fill-212" fill="#FFFFFB" mask="url(#mask-2)"></path>
            <path d="M225.44056,4.93648234 L222.718963,7.14367877 C222.742584,7.23553593 222.76358,7.33789105 222.7872,7.4349972 L225.64527,5.12019667 C225.579658,5.05458441 225.506172,4.99684562 225.44056,4.93648234" id="Fill-213" fill="#FFFFFB" mask="url(#mask-2)"></path>
            <path d="M206.697499,22.1906696 C206.639761,22.1224328 206.579397,22.054196 206.521658,21.9807103 L205.755307,22.605339 C205.847164,22.6447064 205.939022,22.6840737 206.033503,22.7286901 L206.697499,22.1906696 Z" id="Fill-214" fill="#FFFFFB" mask="url(#mask-2)"></path>
            <path d="M223.013431,8.6220542 C223.029178,8.72703382 223.050174,8.82151547 223.065921,8.92911958 L226.54862,6.10779241 C226.490881,6.03955566 226.438391,5.96344543 226.378028,5.89520868 L223.013431,8.6220542 Z" id="Fill-215" fill="#FFFFFB" mask="url(#mask-2)"></path>
            <path d="M223.195571,10.1933366 C223.206069,10.3035652 223.221816,10.4032958 223.229689,10.5161489 L227.339641,7.18567061 C227.289776,7.10956039 227.237286,7.03607466 227.184796,6.96258893 L223.195571,10.1933366 Z" id="Fill-216" fill="#FFFFFB" mask="url(#mask-2)"></path>
            <path d="M207.657275,23.1312869 C207.586414,23.0735481 207.515553,23.0131848 207.447316,22.9528216 L207.192741,23.1575318 C207.295096,23.1890257 207.400075,23.2231441 207.502431,23.254638 L207.657275,23.1312869 Z" id="Fill-217" fill="#FFFFFB" mask="url(#mask-2)"></path>
            <path d="M223.280079,11.8438786 C223.282704,11.9593562 223.287953,12.0669603 223.290577,12.1850624 L227.983166,8.38480027 C227.941174,8.2955676 227.909681,8.21158391 227.867689,8.12760021 L223.280079,11.8438786 Z" id="Fill-218" fill="#FFFFFB" mask="url(#mask-2)"></path>
            <path d="M223.271156,13.5686937 C223.268532,13.6867958 223.265907,13.8127713 223.260658,13.9282489 L228.48077,9.69494588 C228.454525,9.60308871 228.417782,9.51385604 228.388912,9.42199888 L223.271156,13.5686937 Z" id="Fill-219" fill="#FFFFFB" mask="url(#mask-2)"></path>
            <path d="M223.150692,15.3858909 C223.13757,15.5118664 223.127072,15.6430909 223.111325,15.766442 L228.790722,11.1657103 C228.774975,11.0633552 228.764477,10.9557511 228.746106,10.8507714 L223.150692,15.3858909 Z" id="Fill-220" fill="#FFFFFB" mask="url(#mask-2)"></path>
            <path d="M228.890453,12.4538102 L222.854125,17.3432358 C222.825255,17.4797093 222.806884,17.6266808 222.77539,17.7579053 L228.887828,12.8081164 C228.887828,12.7267572 228.895702,12.6532715 228.895702,12.5745367 C228.895702,12.5351694 228.890453,12.4984265 228.890453,12.4538102" id="Fill-221" fill="#FFFFFB" mask="url(#mask-2)"></path>
            <path d="M222.203513,19.5916367 C222.130028,19.775351 222.051293,19.9538164 221.969934,20.1296572 L228.665009,14.7048356 C228.693878,14.5657376 228.722748,14.4292641 228.746368,14.2875416 L222.203513,19.5916367 Z" id="Fill-222" fill="#FFFFFB" mask="url(#mask-2)"></path>
            <path d="M219.731506,23.3105396 C219.96771,23.2423029 220.206539,23.1688171 220.434869,23.0900824 L227.814936,17.1141178 C227.906794,16.9304035 227.985528,16.7440646 228.066887,16.5603503 L219.731506,23.3105396 Z" id="Fill-223" fill="#FFFFFB" mask="url(#mask-2)"></path>
        </g>
    </g>
</svg>