<?xml version="1.0" standalone="no"?>
<!DOCTYPE svg PUBLIC "-//W3C//DTD SVG 20010904//EN"
 "http://www.w3.org/TR/2001/REC-SVG-20010904/DTD/svg10.dtd">
<svg version="1.0" xmlns="http://www.w3.org/2000/svg"
 width="700.000000pt" height="700.000000pt" viewBox="0 0 700.000000 700.000000"
 preserveAspectRatio="xMidYMid meet">
<metadata>
Created by potrace 1.14, written by Peter Selinger 2001-2017
</metadata>
<g transform="translate(0.000000,700.000000) scale(0.100000,-0.100000)"
fill="#000000" stroke="none">
<path d="M590 6353 c-19 -2 -147 -4 -285 -5 l-250 -3 1 -685 1 -685 32 -137
c77 -328 193 -594 365 -838 33 -47 70 -96 81 -109 70 -83 138 -152 245 -251
105 -97 285 -211 462 -291 107 -48 201 -80 343 -115 122 -31 120 -30 175 -39
25 -3 59 -9 75 -12 63 -12 51 -11 2377 -27 216 -1 311 -5 319 -13 8 -8 12 -94
14 -282 l2 -271 -86 -1 c-253 -4 -236 -2 -242 -24 -7 -27 -3 -337 5 -370 l6
-25 258 0 c561 -1 786 1 791 6 10 9 13 404 4 405 -4 1 -75 2 -158 4 -82 1
-153 3 -156 4 -3 0 -5 94 -3 209 1 114 3 242 3 284 1 88 -6 82 108 93 35 3 68
7 75 10 7 2 31 6 53 9 94 11 258 50 370 87 292 97 548 253 752 461 242 245
399 514 522 892 89 274 94 333 95 1156 l1 565 -3160 0 c-1738 0 -3176 -1
-3195 -2z m4890 -415 c564 -2 1030 -7 1037 -11 14 -9 9 -888 -6 -963 -37 -184
-86 -326 -172 -497 -240 -477 -621 -755 -1177 -858 -57 -10 -125 -21 -151 -24
l-48 -5 1 252 1 253 163 3 162 2 0 211 0 210 -535 -3 -535 -3 -1 -30 c-5 -154
-3 -353 4 -368 5 -10 16 -17 25 -16 9 1 80 1 158 0 l141 -1 -2 -250 c-1 -138
-5 -254 -9 -257 -7 -8 -2078 -7 -2396 1 -201 5 -223 7 -350 33 -41 8 -84 17
-95 19 -84 16 -225 69 -354 132 -392 190 -686 566 -821 1047 -45 162 -53 268
-54 805 l-1 315 785 5 c798 5 2380 4 4230 -2z"/>
<path d="M1724 4501 c-20 -6 -21 -11 -19 -199 1 -156 4 -195 16 -203 15 -11
1029 -7 1046 4 7 4 10 77 9 199 l-1 192 -30 8 c-34 9 -988 8 -1021 -1z"/>
<path d="M73 3262 c-26 -4 -25 21 -22 -377 2 -389 3 -407 43 -584 69 -304 231
-658 405 -886 71 -94 307 -321 411 -396 244 -176 623 -317 959 -356 36 -5 779
-8 1651 -8 1209 0 1600 3 1650 12 36 7 83 15 105 19 228 35 554 164 771 305
178 116 392 336 529 544 158 241 302 598 342 850 3 17 8 48 12 70 11 61 14
151 15 495 l1 315 -180 0 c-99 1 -192 -1 -207 -3 l-27 -4 -1 -217 c-2 -288 -7
-483 -15 -556 -23 -222 -169 -578 -316 -775 -218 -293 -497 -481 -850 -575
-133 -35 -288 -62 -383 -65 -108 -5 -2851 -5 -2942 0 -62 3 -152 15 -262 34
-236 43 -507 170 -697 326 -273 224 -485 580 -565 948 -29 132 -32 177 -35
547 -2 182 -3 333 -4 337 -1 7 -341 7 -388 0z"/>
<path d="M1833 2580 c-61 -3 -115 -9 -120 -13 -8 -9 -11 -372 -3 -381 14 -13
129 -17 545 -17 433 0 492 2 514 15 5 3 9 95 10 203 l2 198 -418 0 c-230 0
-468 -2 -530 -5z"/>
</g>
</svg>
